<?xml version="1.0" encoding="utf-8"?>
<!-- Generator: Adobe Illustrator 18.0.0, SVG Export Plug-In . SVG Version: 6.00 Build 0)  -->
<!DOCTYPE svg PUBLIC "-//W3C//DTD SVG 1.1//EN" "http://www.w3.org/Graphics/SVG/1.1/DTD/svg11.dtd">
<svg version="1.1"
	 id="Layer_1" xmlns:inkscape="http://www.inkscape.org/namespaces/inkscape" xmlns:dc="http://purl.org/dc/elements/1.1/" xmlns:svg="http://www.w3.org/2000/svg" xmlns:rdf="http://www.w3.org/1999/02/22-rdf-syntax-ns#" xmlns:sodipodi="http://sodipodi.sourceforge.net/DTD/sodipodi-0.dtd" xmlns:cc="http://creativecommons.org/ns#" inkscape:version="0.48.5 r10040" sodipodi:docname="freeCodeCamp.svg"
	 xmlns="http://www.w3.org/2000/svg" xmlns:xlink="http://www.w3.org/1999/xlink" x="0px" y="0px" viewBox="0 323.8 2739 407.4"
	 enable-background="new 0 323.8 2739 407.4" xml:space="preserve">
<sodipodi:namedview  id="namedview43" inkscape:pageopacity="0" inkscape:current-layer="Layer_1" inkscape:window-x="-4" inkscape:window-maximized="1" inkscape:window-width="1366" inkscape:pageshadow="2" inkscape:window-height="705" inkscape:window-y="-4" inkscape:cx="215.72458" inkscape:zoom="1" bordercolor="#666666" inkscape:cy="-163.56938" objecttolerance="10" borderopacity="1" showgrid="false" gridtolerance="10" guidetolerance="10" pagecolor="#ffffff">
	</sodipodi:namedview>
<path id="path5" inkscape:connector-curvature="0" inkscape:export-filename="C:\Users\anon\Desktop\logo4.0.png" inkscape:export-ydpi="90" inkscape:export-xdpi="90" fill="#FFFFFF" d="
	M89.2,480.3h-23c-8,0-12.1-3.4-12.1-10.3s4-10.3,12.1-10.3h23v-20.1c0-35,17.8-52.2,53.4-52.2c14.3,0,26.4,2.9,36.2,8
	c12.1,7.5,18.4,18.4,18.4,32.1c0,9.2-3.4,13.2-10.3,13.2c-4.6,0-8.6-2.9-10.9-8c-2.9-9.2-5.7-14.3-7.5-16.6c-4-5.2-12.6-8-25.3-8
	c-21.8,0-32.1,10.9-32.1,32.1v19.5h41.9c9.2,0,13.8,3.4,13.8,10.3c0,6.9-4.6,10.3-13.8,10.3H111v131.4c0,8-3.4,12.1-10.3,12.1
	c-6.9,0-10.3-4-10.3-12.1V480.3H89.2z"/>
<path id="path7" inkscape:connector-curvature="0" inkscape:export-filename="C:\Users\anon\Desktop\logo4.0.png" inkscape:export-ydpi="90" inkscape:export-xdpi="90" fill="#FFFFFF" d="
	M275.7,600.2V480.3h-31c-8.6,0-12.6-3.4-12.6-10.3s4-10.3,12.6-10.3H286c6.9,0,10.9,6.3,10.9,17.8c12.6-13.8,26.4-21.2,40.7-21.2
	c12.1,0,21.2,3.4,28.1,10.9c6.9,7.5,10.3,17.2,10.3,28.7c0,8-3.4,12.1-10.3,12.1c-4,0-6.9-2.9-8.6-8c-2.9-9.8-4.6-14.9-5.2-15.5
	c-2.9-5.2-8.6-8-16.1-8c-8,0-15.5,2.9-22.4,8.6c-4,2.9-9.8,9.2-17.2,18.4v95.8h39c8.6,0,12.6,3.4,12.6,9.8c0,6.9-4,10.9-12.6,10.9
	h-91.2c-8.6,0-12.6-3.4-12.6-10.3c0-6.9,4-10.3,12.6-10.3h31.6V600.2z"/>
<path id="path9" inkscape:connector-curvature="0" inkscape:export-filename="C:\Users\anon\Desktop\logo4.0.png" inkscape:export-ydpi="90" inkscape:export-xdpi="90" fill="#FFFFFF" d="
	M432.3,544v23c0,24.7,17.2,36.7,52.2,36.7c12.6,0,23-1.1,31-4c4-1.1,11.5-5.2,21.2-12.1c6.3-5.7,10.9-8.6,12.6-8.6
	c5.7,0,8.6,2.9,8.6,9.2s-4,12.6-12.6,19.5c-13.8,10.9-34.4,16.6-62,16.6c-48.2,0-72.3-18.9-72.3-56.8v-57.4
	c0-13.2,5.2-24.7,14.9-33.9c13.2-12.6,32.7-18.4,59.1-18.4c47.1,0,70.6,23.5,70.6,70c0,11.5-4.6,17.2-13.2,17.2H432.3V544z
	 M432.3,523.3h102.7c0-31-17.2-46.5-52.2-46.5c-12.6,0-24.1,2.9-34.4,8.6c-10.3,7.5-16.1,16.1-16.1,25.8V523.3z"/>
<path id="path11" inkscape:connector-curvature="0" inkscape:export-filename="C:\Users\anon\Desktop\logo4.0.png" inkscape:export-ydpi="90" inkscape:export-xdpi="90" fill="#FFFFFF" d="
	M612.5,544v23c0,24.7,17.2,36.7,52.2,36.7c12.6,0,23-1.1,31-4c4-1.1,11.5-5.2,21.2-12.1c6.3-5.7,10.9-8.6,12.6-8.6
	c5.7,0,8.6,2.9,8.6,9.2s-4,12.6-12.6,19.5c-13.8,10.9-34.4,16.6-62,16.6c-48.2,0-72.3-18.9-72.3-56.8v-57.4
	c0-13.2,5.2-24.7,14.9-33.9c13.2-12.6,32.7-18.4,59.1-18.4c47.1,0,70.6,23.5,70.6,70c0,11.5-4.6,17.2-13.2,17.2H612.5V544z
	 M612.5,523.3h102.7c0-31-17.2-46.5-52.2-46.5c-12.6,0-24.1,2.9-34.4,8.6c-10.9,7.5-16.1,16.1-16.1,25.8V523.3z"/>
<path id="path13" inkscape:connector-curvature="0" inkscape:export-filename="C:\Users\anon\Desktop\logo4.0.png" inkscape:export-ydpi="90" inkscape:export-xdpi="90" fill="#FFFFFF" d="
	M773.8,557.2v-89.5c0-47.1,24.7-70,74.6-70c20.1,0,36.2,4.6,48.8,13.2c14.3,10.9,21.2,25.8,21.2,44.2c0,8.6-3.4,13.2-10.9,13.2
	c-5.2,0-8.6-4-10.9-12.6c-1.1-6.9-4-13.8-8-20.1c-6.3-11.5-20.1-16.6-41.9-16.6c-18.4,0-31.6,4.6-39.6,13.8
	c-7.5,8.6-11.5,21.8-11.5,40.7V548c0,19.5,4,33.3,12.1,41.9c8.6,9.2,21.8,14.3,40.2,14.3c28.1,0,44.2-9.8,48.2-29.3
	c1.7-7.5,2.3-10.9,2.3-11.5c1.7-4,4.6-6.3,8.6-6.3c6.9,0,10.9,4.6,10.9,13.2c0,17.8-7.5,31.6-22.4,42.5c-12.1,8-27.5,12.1-47.1,12.1
	c-23,0-40.7-5.2-53.9-16.1C780.7,596.8,773.8,579.6,773.8,557.2L773.8,557.2z"/>
<path id="path15" inkscape:connector-curvature="0" inkscape:export-filename="C:\Users\anon\Desktop\logo4.0.png" inkscape:export-ydpi="90" inkscape:export-xdpi="90" fill="#FFFFFF" d="
	M951.7,569.8v-59.1c0-36.2,24.1-53.9,72.3-53.9c48.2,0,72.3,17.8,72.3,53.9v59.1c0,36.2-23.5,53.9-71.2,53.9
	C975.8,623.7,951.7,606,951.7,569.8L951.7,569.8z M1075.1,569.8v-59.1c0-22.4-17.2-33.9-52.2-33.9c-33.3,0-50.5,11.5-50.5,33.9v59.1
	c0,22.4,17.2,33.9,51.6,33.3C1058.4,603.1,1075.1,592.2,1075.1,569.8L1075.1,569.8z"/>
<path id="path17" inkscape:connector-curvature="0" inkscape:export-filename="C:\Users\anon\Desktop\logo4.0.png" inkscape:export-ydpi="90" inkscape:export-xdpi="90" fill="#FFFFFF" d="
	M1254.1,604.2c-9.8,7.5-18.4,12.1-25.8,14.9c-8,2.9-17.8,4.6-29.3,4.6c-19.5,0-35-4-47.1-12.1c-13.8-9.2-20.7-23-20.7-41.9v-60.3
	c0-17.8,6.9-31.6,20.1-40.7c11.5-8,27-12.1,45.3-12.1c12.1,0,22.4,1.1,30.4,4c8,2.9,16.6,8,25.8,15.5v-74c0-9.8,3.4-14.9,9.8-14.9
	c6.9,0,10.9,5.2,10.9,14.9v210.6c0,7.5-3.4,10.9-9.8,10.9c-4,0-6.9-2.3-8-6.9C1254.7,613.4,1254.1,609.4,1254.1,604.2L1254.1,604.2z
	 M1253,580.1v-82.6c-10.3-7.5-18.4-12.6-24.7-14.9c-8.6-3.4-17.8-5.2-28.1-5.2c-13.2,0-24.1,2.3-32.1,7.5
	c-10.3,6.3-15.5,15.5-15.5,27v56.8c0,12.1,5.2,21.2,16.1,27.5c8.6,4.6,19.5,7.5,32.7,7.5c10.9,0,20.7-1.7,28.7-5.2
	C1236.9,593.9,1244.4,588.2,1253,580.1z"/>
<path id="path19" inkscape:connector-curvature="0" inkscape:export-filename="C:\Users\anon\Desktop\logo4.0.png" inkscape:export-ydpi="90" inkscape:export-xdpi="90" fill="#FFFFFF" d="
	M1332.2,544v23c0,24.7,17.2,36.7,52.2,36.7c12.6,0,23-1.1,31-4c4-1.1,11.5-5.2,21.2-12.1c6.3-5.7,10.9-8.6,12.6-8.6
	c5.7,0,8.6,2.9,8.6,9.2s-4,12.6-12.6,19.5c-13.8,10.9-34.4,16.6-62,16.6c-48.2,0-72.3-18.9-72.3-56.8v-57.4
	c0-13.2,5.2-24.7,14.9-33.9c13.2-12.6,32.7-18.4,59.1-18.4c47.1,0,70.6,23.5,70.6,70c0,11.5-4.6,17.2-13.2,17.2h-110.2L1332.2,544z
	 M1332.2,523.3h102.7c0-31-17.2-46.5-52.2-46.5c-12.6,0-24.1,2.9-34.4,8.6c-10.9,7.5-16.1,16.1-16.1,25.8V523.3z"/>
<path id="path21" inkscape:connector-curvature="0" inkscape:export-filename="C:\Users\anon\Desktop\logo4.0.png" inkscape:export-ydpi="90" inkscape:export-xdpi="90" fill="#FFFFFF" d="
	M1493.5,557.2v-89.5c0-47.1,24.7-70,74.6-70c20.1,0,36.2,4.6,48.8,13.2c14.3,10.9,21.2,25.8,21.2,44.2c0,8.6-3.4,13.2-10.9,13.2
	c-5.2,0-8.6-4-10.9-12.6c-1.1-6.9-4-13.8-8-20.1c-6.3-11.5-20.1-16.6-41.9-16.6c-18.4,0-31.6,4.6-39.6,13.8
	c-7.5,8.6-11.5,21.8-11.5,40.7V548c0,19.5,4,33.3,12.1,41.9c8.6,9.2,21.8,14.3,40.2,14.3c28.1,0,44.2-9.8,48.2-29.3
	c1.7-7.5,2.3-10.9,2.3-11.5c1.7-4,4.6-6.3,8.6-6.3c6.9,0,10.9,4.6,10.9,13.2c0,17.8-7.5,31.6-22.4,42.5c-12.1,8-27.5,12.1-47.1,12.1
	c-23,0-40.7-5.2-53.9-16.1C1500.9,596.8,1493.5,579.6,1493.5,557.2L1493.5,557.2z"/>
<path id="path23" inkscape:connector-curvature="0" inkscape:export-filename="C:\Users\anon\Desktop\logo4.0.png" inkscape:export-ydpi="90" inkscape:export-xdpi="90" fill="#FFFFFF" d="
	M1787.3,604.2c-10.3,7.5-18.4,12.6-24.1,14.9c-7.5,2.9-16.6,4.6-28.1,4.6c-17.2,0-31.6-3.4-42.5-10.9c-12.6-8.6-19.5-21.2-19.5-37.9
	s6.9-29.8,20.1-39c11.5-8.6,26.4-12.6,43.6-12.6c14.3,0,30.4,3.4,48.8,9.8v-25.3c0-12.1-5.7-20.7-17.2-25.8
	c-8-3.4-17.8-5.2-29.3-5.2c-27,0-41.3,7.5-44.2,22.4c-1.1,6.9-2.3,10.3-2.3,10.9c-1.7,3.4-4.6,5.2-8.6,5.2c-7.5,0-11.5-4-11.5-12.1
	c0-10.9,4-20.7,12.6-29.8c10.3-11.5,29.3-17.2,55.7-17.2c21.2,0,36.7,3.4,47.1,10.3c12.1,8.6,18.4,23,18.4,43V583
	c0,8.6,1.7,14.3,5.2,17.2c0.6,0.6,4,2.3,9.8,4.6c3.4,1.7,5.2,4.6,5.2,9.8c0,5.7-2.9,8.6-9.2,8.6c-1.7,0-4.6-0.6-9.2-2.3
	c-8-2.9-13.2-4.6-14.3-5.2C1790.7,614,1788.4,610,1787.3,604.2L1787.3,604.2z M1786.1,582.4V552c-16.1-5.2-31.6-8-45.3-8
	c-31,0-46.5,9.8-46.5,29.8c0,10.3,4.6,18.4,13.8,23c7.5,4,16.6,6.3,28.1,6.3c9.8,0,18.9-1.7,27-5.7
	C1769.5,595.1,1777,589.9,1786.1,582.4z"/>
<path id="path25" inkscape:connector-curvature="0" inkscape:export-filename="C:\Users\anon\Desktop\logo4.0.png" inkscape:export-ydpi="90" inkscape:export-xdpi="90" fill="#FFFFFF" d="
	M1867.6,474c5.2-6.3,9.8-10.9,13.2-12.6c4.6-2.9,10.3-4.6,17.8-4.6c11.5,0,21.2,5.7,29.8,17.8c5.7-6.9,10.9-11.5,15.5-13.8
	c5.2-2.9,12.1-4,20.1-4c24.7,0,37.3,12.1,37.3,36.2v116.5c0,9.8-3.4,14.3-10.9,14.3c-6.9,0-10.3-4.6-10.3-14.3V499.8
	c0-14.9-6.3-23-18.4-23c-9.2,0-18.4,5.7-26.4,16.6v115.9c0,9.8-3.4,14.3-10.3,14.3s-10.3-4.6-10.3-14.3V502.1
	c0-16.6-6.9-24.7-20.1-24.7c-8.6,0-16.6,5.7-25.3,16.6v115.4c0,9.8-3.4,14.3-10.9,14.3c-6.9,0-10.3-4.6-10.3-14.3V467.1
	c0-6.9,2.9-10.3,8.6-10.3c2.9,0,5.7,2.3,7.5,6.3C1866.5,465.9,1867.6,469.9,1867.6,474L1867.6,474z"/>
<path id="path27" inkscape:connector-curvature="0" inkscape:export-filename="C:\Users\anon\Desktop\logo4.0.png" inkscape:export-ydpi="90" inkscape:export-xdpi="90" fill="#FFFFFF" d="
	M2054.1,474c16.1-11.5,35-17.2,55.7-17.2c43.6,0,65.4,18.4,65.4,54.5v59.7c0,17.2-6.3,30.4-18.4,40.2c-10.9,8.6-25.8,13.2-44.8,13.2
	c-22.4,0-41.3-5.7-58-17.8v67.7c0,10.3-3.4,15.5-10.3,15.5c-6.9,0-10.3-5.2-10.3-15.5v-202c0-10.3,2.9-15.5,8.6-15.5
	c2.9,0,5.7,2.3,8,6.3C2051.3,466.5,2053,470.5,2054.1,474L2054.1,474z M2054.1,583c14.9,13.2,33.3,20.1,54.5,20.1
	c13.2,0,23.5-2.3,31.6-7.5c9.8-5.7,14.3-14.3,14.3-25.3v-59.7c0-12.6-5.2-21.2-15.5-27c-8-4-18.9-6.3-32.1-6.3
	c-12.1,0-21.8,1.7-29.3,5.2c-6.9,2.9-14.3,9.2-23.5,18.4L2054.1,583L2054.1,583z"/>
<path id="path29" inkscape:connector-curvature="0" inkscape:export-filename="C:\Users\anon\Desktop\logo4.0.png" inkscape:export-ydpi="90" inkscape:export-xdpi="90" fill="#FFFFFF" d="
	M2246.4,526.2c0-45.3,15.5-85.5,47.1-121.1c11.5-13.2,20.7-19.5,27-19.5c2.3,0,4.6,0.6,6.3,2.3c1.7,1.7,2.9,3.4,2.9,5.7
	c0,3.4-4,8.6-12.1,16.6c-32.7,31.6-49.4,70.6-49.4,117.1c0,51.6,17.2,93.5,51.1,125.7c6.9,6.3,10.3,11.5,10.3,15.5
	c0,2.3-1.1,4.6-2.9,6.3c-1.7,1.7-4,2.9-6.3,2.9c-8,0-18.9-9.2-33.3-27.5C2259.6,616.3,2246.4,575,2246.4,526.2z"/>
<path id="path31" inkscape:connector-curvature="0" inkscape:export-filename="C:\Users\anon\Desktop\logo4.0.png" inkscape:export-ydpi="90" inkscape:export-xdpi="90" fill="#FFFFFF" d="
	M2680.8,537.7c0,45.3-15.5,85.5-47.1,121.1c-11.5,13.2-20.7,19.5-27,19.5c-2.3,0-4.6-0.6-6.3-2.3s-2.9-4-2.9-6.3
	c0-3.4,4-8.6,12.1-16.1c32.7-31.6,49.4-70.6,49.4-117.1c0-51.6-17.2-93.5-51.1-125.7c-6.9-6.3-10.3-11.5-10.3-15.5
	c0-2.3,1.1-4.6,2.9-6.3c1.7-1.7,4-2.9,6.3-2.9c7.5,0,18.9,9.2,33.3,27.5C2667,448.1,2680.8,489.5,2680.8,537.7z"/>
<g id="g33" transform="translate(-4.8945596e-8,2)" inkscape:export-filename="C:\Users\anon\Desktop\logo4.0.png" inkscape:export-ydpi="90" inkscape:export-xdpi="90">
	<line id="line35" fill="none" x1="2368.6" y1="636.7" x2="2567.8" y2="636.7"/>
	<path id="path37" inkscape:connector-curvature="0" fill="#F9F9F9" d="M2567.2,648.7h-199.1c-6.3,0-12.1-5.2-12.1-12.1
		c0-6.9,5.2-12.1,12.1-12.1h199.1c6.3,0,12.1,5.2,12.1,12.1C2579.2,643.6,2574.1,648.7,2567.2,648.7z"/>
</g>
<path id="path3081" inkscape:connector-curvature="0" inkscape:export-filename="C:\Users\anon\Desktop\logo4.0.png" inkscape:export-ydpi="90" inkscape:export-xdpi="90" fill="#FFFFFF" d="
	M2529,477.9c-3.2-10.8-8.3-21-16.1-29c-2.1-2.1-4.3-4.1-6.5-6.1c-1.7-1.6-6-4.1-6.9-6.2c4.6,10.7,9.1,21.8,5.7,33.6
	c-1.6,5.3-7.4,18.1-15.1,14.8c-7.2-3.1-6.4-18.3-7-24.4c-1.5-15.1-4.9-30.1-12.9-43.1c-4.4-7.1-10.1-13.4-17.3-17.7
	c-9.5-5.6-19.3-9.4-30.1-5.3c2.4-0.9,8.6,6.3,9.8,7.7c3.8,4.5,6.9,9.8,8.6,15.4c3.4,11.4,0.4,24.5-3.6,35.4
	c-8.3,22.6-22.1,42.9-28.7,66.1c-2.3,8.1-3.9,16.4-4.3,24.8c-1.4,26.5,12.4,50.8,34.2,65.6c4.9,3.4,13.7,7.6,20,5.4
	c-18.3-9.8-24.4-17.8-27.2-29.3c-6.6-26.7,18.4-43.7,29.2-64.8c2.9-5.6,5-11.8,4.2-18.2c-0.3-2.4-3-14.1-6.6-13.5
	c10.9-1.7,18,5.5,21.7,14.9c3.9,10,6.3,20.2,4.5,30.8c-0.6,3.5-3.2,14.6,1.9,15.3c7.1,1,13.1-8.4,11.7-17.4
	c-0.7-4.2-1.5-10.6-1.5-10.6c7.5,9.2,10.9,18.5,12,28.6c2,18.1-5.8,42-20.3,56.8c6.1-6.2,13.9-10.5,19.8-17.2
	c6-6.8,10.6-14.6,14.2-23c8.1-18.6,12.8-39.6,11.4-59.9C2533.3,497.7,2531.9,487.5,2529,477.9L2529,477.9z"/>
</svg>
