<?xml version="1.0" encoding="UTF-8" standalone="no"?>
<!-- Generator: Adobe Illustrator 19.2.0, SVG Export Plug-In . SVG Version: 6.00 Build 0)  -->

<svg
   xmlns:dc="http://purl.org/dc/elements/1.1/"
   xmlns:cc="http://creativecommons.org/ns#"
   xmlns:rdf="http://www.w3.org/1999/02/22-rdf-syntax-ns#"
   xmlns:svg="http://www.w3.org/2000/svg"
   xmlns="http://www.w3.org/2000/svg"
   xmlns:sodipodi="http://sodipodi.sourceforge.net/DTD/sodipodi-0.dtd"
   xmlns:inkscape="http://www.inkscape.org/namespaces/inkscape"
   version="1.1"
   id="Layer_1"
   x="0px"
   y="0px"
   viewBox="0 0 202 202"
   style="enable-background:new 0 0 202 202;"
   xml:space="preserve"
   inkscape:version="0.91 r13725"
   sodipodi:docname="landingIcons_connect.svg"><metadata
   id="metadata5722"><rdf:RDF><cc:Work
       rdf:about=""><dc:format>image/svg+xml</dc:format><dc:type
         rdf:resource="http://purl.org/dc/dcmitype/StillImage" /></cc:Work></rdf:RDF></metadata><defs
   id="defs5720" /><sodipodi:namedview
   pagecolor="#ffffff"
   bordercolor="#666666"
   borderopacity="1"
   objecttolerance="10"
   gridtolerance="10"
   guidetolerance="10"
   inkscape:pageopacity="0"
   inkscape:pageshadow="2"
   inkscape:window-width="1366"
   inkscape:window-height="706"
   id="namedview5718"
   showgrid="false"
   inkscape:zoom="3.1923879"
   inkscape:cx="90.892235"
   inkscape:cy="124.36744"
   inkscape:window-x="-8"
   inkscape:window-y="-8"
   inkscape:window-maximized="1"
   inkscape:current-layer="Layer_2" />
<style
   type="text/css"
   id="style5555">
	.st0{fill:#ABBF7B;}
	.st1{fill:#C9E091;}
	.st2{fill:#215F1E;}
	.st3{fill:#006400;}
	.st4{fill:none;}
</style>

<g
   id="Layer_3">
</g>
<g
   id="Layer_2">
	<g
   id="g5628">
		
		
	</g>
	<g
   id="g5696"
   style="fill:#7b6c45;fill-opacity:1">
		
		
		
		<circle
   class="st3"
   cx="59.1"
   cy="54.6"
   r="12.7"
   id="circle5704"
   style="fill:#7b6c45;fill-opacity:1" />
		<path
   class="st3"
   d="M64.4,163.5v-45.7l3.6-0.7l12.9,48.6c0.1,0.5,0.3,0.9,0.5,1.3h12.1c0.7-1.4,1-3.1,0.5-4.8l-12.7-48l-6.6-34.6    c1.2-0.1,1.9-0.2,1.9-0.2c0.6-0.1,1.2-0.2,1.7-0.5c0.8-0.4,16.4-8.4,23-21.6c-1.1-2.2-2-4.6-2.5-7.1c-0.4-2.2,0.6-4.2,2.5-5.2    c-0.4-0.2-0.9-0.4-1.4-0.5c-2.7-0.5-5.3,1.2-5.8,3.9C92,59.5,78,67.9,74.6,69.8c-3,0.3-12.7,1.4-26.1,3.4c-0.9,0.1-1.7,0.5-2.4,1    c-21.8,17.6-11.9,49.7-11.4,51c0.7,2.1,2.6,3.4,4.7,3.4c0.5,0,1-0.1,1.5-0.2c2.6-0.8,4-3.6,3.2-6.2c-0.1-0.2-5.8-19.1,2-33    l4.8,25.1c-0.1,0.4-0.1,0.7-0.1,1.1v48.1c0,1.3,0.4,2.5,1,3.5h11.6C64.1,166,64.4,164.8,64.4,163.5z"
   id="path5706"
   style="fill:#7b6c45;fill-opacity:1" />
		<circle
   class="st3"
   cx="143.5"
   cy="54.6"
   r="12.7"
   id="circle5708"
   style="fill:#7b6c45;fill-opacity:1" />
		<path
   class="st3"
   d="M98.9,50.3c0.5,2.5,1.4,4.9,2.5,7.1c6.6,13.2,22.2,21.2,23,21.6c0.5,0.3,1.1,0.4,1.7,0.5c0,0,0.7,0.1,1.9,0.2    l-6.6,34.6l-12.7,48c-0.4,1.7-0.2,3.4,0.5,4.8h12.1c0.2-0.4,0.4-0.9,0.5-1.3l12.9-48.6l3.6,0.7v45.7c0,1.3,0.4,2.5,1,3.5h11.6    c0.6-1,1-2.2,1-3.5v-48.1c0-0.4,0-0.8-0.1-1.1l4.8-25.1c7.9,13.9,2.1,32.8,2,33c-0.8,2.6,0.6,5.4,3.2,6.2c0.5,0.2,1,0.2,1.5,0.2    c2.1,0,4-1.3,4.7-3.4c0.4-1.4,10.3-33.4-11.4-51c-0.7-0.6-1.5-0.9-2.4-1c-13.3-2-23-3.1-26.1-3.4c-3.4-1.9-17.3-10.3-19.5-21.4    c-0.5-2.7-3.1-4.4-5.8-3.9c-0.5,0.1-1,0.3-1.4,0.5C99.5,46,98.4,48.1,98.9,50.3z"
   id="path5710"
   style="fill:#7b6c45;fill-opacity:1" />
		<path
   class="st3"
   d="M150.8,167h-11.6h-17.9h-12.1H93.5H81.4h-18H51.9H28.5c17.9,19.7,43.8,32,72.5,32s54.6-12.4,72.5-32H150.8z"
   id="path5712"
   style="fill:#7b6c45;fill-opacity:1" />
	</g>
	<path
   class="st3"
   d="M101,14.5c47.7,0,86.5,38.8,86.5,86.5s-38.8,86.5-86.5,86.5S14.5,148.7,14.5,101S53.3,14.5,101,14.5 M101,2.9   C46.8,2.9,2.9,46.8,2.9,101s43.9,98.1,98.1,98.1s98.1-43.9,98.1-98.1S155.2,2.9,101,2.9L101,2.9z"
   id="path5714"
   style="fill:#7b6c45;fill-opacity:1" />
</g>

</svg>