<?xml version="1.0" encoding="utf-8"?>
<!-- Generator: Adobe Illustrator 19.2.0, SVG Export Plug-In . SVG Version: 6.00 Build 0)  -->
<svg version="1.1" id="Layer_1" xmlns="http://www.w3.org/2000/svg" xmlns:xlink="http://www.w3.org/1999/xlink" x="0px" y="0px"
	 viewBox="0 0 202 202" style="enable-background:new 0 0 202 202;" xml:space="preserve">
<style type="text/css">
	.st0{fill:#ABBF7B;}
	.st1{fill:#C9E091;}
	.st2{fill:#006400;}
	.st3{fill:none;}
</style>
<g id="Layer_1_1_">
</g>
<g id="Layer_3">
</g>
<g id="Layer_2">
	<g>
		<g>
			<g>
				<path class="st0" d="M74,5.9L196.1,128c0.7-2.5,1.3-4.9,1.8-7.5L81.5,4.2C79,4.6,76.5,5.2,74,5.9z"/>
				<path class="st0" d="M3.1,82.5l116.3,116.3c2.5-0.5,5-1.1,7.5-1.8L4.9,75C4.2,77.5,3.6,80,3.1,82.5z"/>
				<path class="st0" d="M188.6,56L146,13.4c-5-2.6-10.3-4.8-15.7-6.5l64.8,64.8C193.4,66.2,191.2,61,188.6,56z"/>
				<path class="st0" d="M19.8,43.9l138.3,138.3c1.8-1.3,3.5-2.6,5.2-4L23.8,38.6C22.4,40.3,21.1,42.1,19.8,43.9z"/>
				<path class="st0" d="M7.1,68L134,194.9c2.2-0.8,4.4-1.7,6.6-2.6L9.7,61.5C8.8,63.6,7.9,65.8,7.1,68z"/>
				<path class="st0" d="M118.1,3.9c-3.4-0.6-7-1.1-10.5-1.3l91.8,91.8c-0.3-3.6-0.7-7.1-1.3-10.5L118.1,3.9z"/>
				<path class="st0" d="M12.8,55.3l134,134c2-1.1,4-2.2,5.9-3.4L16.1,49.4C14.9,51.3,13.8,53.3,12.8,55.3z"/>
				<path class="st0" d="M28.1,33.7l140.2,140.2c1.6-1.5,3.1-3,4.6-4.6L32.7,29.1C31.1,30.6,29.6,32.1,28.1,33.7z"/>
				<path class="st0" d="M60.4,10.8l130.8,130.8c1-2.2,1.8-4.4,2.6-6.6L67,8.1C64.8,8.9,62.6,9.8,60.4,10.8z"/>
				<path class="st0" d="M48.4,17.1l136.5,136.5c1.2-1.9,2.3-3.9,3.4-5.9l-134-134C52.2,14.8,50.3,15.9,48.4,17.1z"/>
				<path class="st0" d="M89.5,2.9l109.6,109.6c0.3-2.8,0.5-5.7,0.6-8.6L98.1,2.4C95.2,2.4,92.3,2.6,89.5,2.9z"/>
				<path class="st0" d="M37.6,24.8l139.6,139.6c1.4-1.7,2.7-3.4,4-5.2L42.8,20.8C41.1,22.1,39.3,23.4,37.6,24.8z"/>
				<path class="st0" d="M2.9,119.1l80,80c3.4,0.6,7,1.1,10.5,1.3L1.6,108.6C1.8,112.2,2.3,115.7,2.9,119.1z"/>
				<path class="st0" d="M1.4,99.2l101.5,101.5c2.9-0.1,5.8-0.3,8.6-0.6L1.9,90.5C1.6,93.4,1.4,96.2,1.4,99.2z"/>
				<path class="st0" d="M12.4,147.1l42.5,42.5c5,2.6,10.3,4.8,15.7,6.5L5.9,131.4C7.6,136.8,9.8,142.1,12.4,147.1z"/>
				<path class="st1" d="M146,13.4L188.6,56C179.2,37.7,164.3,22.8,146,13.4z"/>
				<path class="st1" d="M195.1,71.7L130.3,6.9c-4-1.3-8.1-2.3-12.2-3l80,80C197.4,79.7,196.3,75.6,195.1,71.7z"/>
				<path class="st1" d="M100.5,2.3c-0.8,0-1.6,0-2.4,0l101.5,101.5c0-0.8,0-1.6,0-2.4c0-2.4-0.1-4.7-0.3-7.1L107.6,2.6
					C105.2,2.4,102.9,2.3,100.5,2.3z"/>
				<path class="st1" d="M81.5,4.2l116.3,116.3c0.5-2.6,0.9-5.3,1.2-8L89.5,2.9C86.8,3.2,84.1,3.6,81.5,4.2z"/>
				<path class="st1" d="M67,8.1L193.9,135c0.8-2.3,1.6-4.6,2.2-7L74,5.9C71.7,6.6,69.3,7.3,67,8.1z"/>
				<path class="st1" d="M54.2,13.8l134,134c1.1-2,2.1-4.1,3-6.2L60.4,10.8C58.3,11.7,56.3,12.7,54.2,13.8z"/>
				<path class="st1" d="M42.8,20.8l138.3,138.3c1.3-1.8,2.5-3.6,3.7-5.5L48.4,17.1C46.5,18.3,44.6,19.5,42.8,20.8z"/>
				<path class="st1" d="M32.7,29.1l140.2,140.2c1.5-1.6,2.9-3.2,4.3-4.9L37.6,24.8C35.9,26.2,34.3,27.6,32.7,29.1z"/>
				<path class="st1" d="M23.8,38.6l139.6,139.6c1.7-1.4,3.3-2.8,4.9-4.3L28.1,33.7C26.6,35.3,25.2,37,23.8,38.6z"/>
				<path class="st1" d="M16.1,49.4l136.5,136.5c1.9-1.2,3.7-2.4,5.5-3.7L19.8,43.9C18.5,45.7,17.3,47.5,16.1,49.4z"/>
				<path class="st1" d="M9.7,61.5l130.8,130.8c2.1-0.9,4.2-1.9,6.2-3l-134-134C11.7,57.3,10.7,59.4,9.7,61.5z"/>
				<path class="st1" d="M4.9,75l122,122c2.4-0.7,4.7-1.4,7-2.2L7.1,68C6.3,70.3,5.6,72.7,4.9,75z"/>
				<path class="st1" d="M1.9,90.5L111.4,200c2.7-0.3,5.4-0.7,8-1.2L3.1,82.5C2.6,85.1,2.2,87.8,1.9,90.5z"/>
				<path class="st1" d="M1.3,101.5c0,2.4,0.1,4.8,0.3,7.1l91.8,91.8c2.3,0.2,4.7,0.3,7.1,0.3c0.8,0,1.6,0,2.3,0L1.4,99.2
					C1.3,99.9,1.3,100.7,1.3,101.5z"/>
				<path class="st1" d="M5.9,131.4l64.7,64.7c4,1.3,8.1,2.3,12.2,3l-80-80C3.6,123.3,4.6,127.4,5.9,131.4z"/>
				<path class="st1" d="M54.9,189.6l-42.5-42.5C21.8,165.3,36.7,180.2,54.9,189.6z"/>
			</g>
			<path class="st2" d="M101,12.8c48.6,0,88.2,39.6,88.2,88.2s-39.6,88.2-88.2,88.2S12.8,149.6,12.8,101S52.4,12.8,101,12.8 M101,1
				C45.8,1,1,45.8,1,101s44.8,100,100,100s100-44.8,100-100S156.2,1,101,1L101,1z"/>
		</g>
		<g>
			<path class="st3" d="M90.6,50.3c-4-0.1-7.2,0.6-9,1.1v3.9l9,0.9V50.3z"/>
			<path class="st3" d="M96.1,56.8l9,0.9v-3.5c-3.1-1.7-6.2-2.7-9-3.3V56.8z"/>
			<path class="st3" d="M151.7,86.7l-3.5,1.8v54.7c0,4.3,5.3,4,5.3,0.4c0-2.8,0.1-11.7,0.1-11.7V69.8c0-1.8-1.4-3.3-3.2-3.5l-28.9-3
				h-2V63l-9-0.9V67l34.5,3.6c1.8,0.2,3.2,1.7,3.2,3.5v8.2l1-0.5L151.7,86.7z"/>
			<polygon class="st3" points="81.7,64 105.1,66.5 105.1,61.5 81.7,59.1 			"/>
			<path class="st3" d="M96.1,43v2.3c4.1,0.7,8.5,2.2,13.1,4.9l1.3,0.8v7.2l9,0.9V45.9C109.3,40.3,99.8,42,96.1,43z"/>
			<path class="st2" d="M160.4,63.5L125,59.8V42.7l-1.3-0.8c-16.1-9.6-30.8-3.6-31.4-3.4l-1.7,0.7v5.6c-7.3-0.2-12.4,1.9-12.8,2.1
				l-1.7,0.7v7.1L56,52.6c-2-0.2-3.8,1.4-3.9,3.4l24,2.5v4.9l-35.5-3.7c-2.1-0.2-3.9,1.4-3.9,3.5v6.6l44,30.2
				c0.6-1.4,2.1-2.3,3.8-2.2l18,1.7c2.1,0.2,3.7,1.9,3.8,4l41.9-21.2v-8.2c0-1.8-1.4-3.3-3.2-3.5L110.6,67v-4.9l9,0.9v0.2h2l28.9,3
				c1.8,0.2,3.2,1.7,3.2,3.5v62.1c0,0-0.1,9-0.1,11.7c0,3.5-5.3,3.8-5.3-0.4V88.4l-41.9,21.2v5.1c0,2.1-1.6,3.7-3.7,3.7
				c-0.1,0-0.3,0-0.4,0l-18-1.7c-2.2-0.2-3.9-2.1-3.9-4.2v-6l-43.6-30v58.1c0,1.2,0.6,2.2,1.5,2.9c1.9,4.2,6,7.7,13.8,8.7
				c12.2,1.6,84.4,10.7,93.1,11.1c8.3,0.4,17.3-7.4,18.2-18.3c0.1-0.2,0.1-0.5,0.1-0.8V67C163.5,65.2,162.2,63.7,160.4,63.5z
				 M81.7,51.4c1.8-0.5,5-1.2,9-1.1v5.9l-9-0.9V51.4z M105.1,57.7l-9-0.9v-5.9c2.8,0.6,5.9,1.6,9,3.3V57.7z M105.1,66.5L81.7,64
				v-4.9l23.4,2.4V66.5z M110.6,58.3V51l-1.3-0.8c-4.6-2.7-9.1-4.2-13.1-4.9V43c3.7-1,13.2-2.7,23.4,2.8v13.4L110.6,58.3z"/>
			<path class="st2" d="M82.7,112.4c0,1,0.8,1.8,1.8,1.9l18,1.7c0.9,0.1,1.5-0.5,1.5-1.4v-11c0-1-0.8-1.8-1.8-1.9l-18-1.7
				c-0.1,0-0.1,0-0.2,0c-0.8,0-1.4,0.6-1.4,1.4L82.7,112.4L82.7,112.4z"/>
		</g>
	</g>
</g>
<rect x="355" y="98.7" class="st2" width="18.6" height="18.6"/>
</svg>
