<?xml version="1.0" encoding="utf-8"?>
<!-- Generator: Adobe Illustrator 19.2.0, SVG Export Plug-In . SVG Version: 6.00 Build 0)  -->
<svg version="1.1" id="Layer_1" xmlns="http://www.w3.org/2000/svg" xmlns:xlink="http://www.w3.org/1999/xlink" x="0px" y="0px"
	 viewBox="0 0 202 202" style="enable-background:new 0 0 202 202;" xml:space="preserve">
<style type="text/css">
	.st0{fill:#ABBF7B;}
	.st1{fill:#C9E091;}
	.st2{fill:#006400;}
</style>
<g id="Layer_1_1_">
</g>
<g id="Layer_3">
</g>
<g id="Layer_2">
	<g>
		<g>
			<g>
				<path class="st0" d="M13.2,146.5L55.7,189c5,2.6,10.3,4.8,15.7,6.5L6.7,130.8C8.4,136.2,10.6,141.5,13.2,146.5z"/>
				<path class="st0" d="M173.8,168.7L33.5,28.5c-1.6,1.5-3.1,3-4.6,4.6l140.2,140.2C170.7,171.9,172.3,170.3,173.8,168.7z"/>
				<path class="st0" d="M164.2,177.6L24.6,38c-1.4,1.7-2.7,3.4-4,5.2L159,181.7C160.8,180.4,162.5,179,164.2,177.6z"/>
				<path class="st0" d="M194.8,134.4L67.9,7.5c-2.2,0.8-4.4,1.7-6.6,2.6L192.1,141C193.1,138.8,194,136.6,194.8,134.4z"/>
				<path class="st0" d="M153.5,185.3L16.9,48.8c-1.2,1.9-2.3,3.9-3.4,5.9l134,134C149.6,187.6,151.6,186.5,153.5,185.3z"/>
				<path class="st0" d="M182.1,158.6L43.7,20.2c-1.8,1.3-3.5,2.6-5.2,4l139.6,139.6C179.5,162.1,180.8,160.4,182.1,158.6z"/>
				<path class="st0" d="M112.3,199.5L2.8,89.9c-0.3,2.8-0.5,5.7-0.6,8.6L103.7,200C106.6,200,109.5,199.8,112.3,199.5z"/>
				<path class="st0" d="M141.4,191.7L10.6,60.9c-1,2.2-1.8,4.4-2.6,6.6l126.9,126.9C137.1,193.5,139.3,192.7,141.4,191.7z"/>
				<path class="st0" d="M83.7,198.6c3.5,0.6,7,1.1,10.5,1.3L2.4,108c0.3,3.6,0.7,7.1,1.3,10.5L83.7,198.6z"/>
				<path class="st0" d="M198.7,119.9L82.3,3.5c-2.5,0.5-5,1.1-7.5,1.8L197,127.4C197.7,124.9,198.2,122.4,198.7,119.9z"/>
				<path class="st0" d="M127.8,196.6L5.7,74.5C5,76.9,4.5,79.4,4,81.9l116.4,116.4C122.9,197.8,125.4,197.2,127.8,196.6z"/>
				<path class="st0" d="M189.1,147.2l-134-134c-2,1.1-4,2.2-5.9,3.4l136.6,136.6C186.9,151.1,188.1,149.2,189.1,147.2z"/>
				<path class="st0" d="M199,83.3l-80-80c-3.5-0.6-7-1.1-10.5-1.3l91.9,91.9C200.1,90.3,199.6,86.8,199,83.3z"/>
				<path class="st0" d="M189.5,55.4l-42.6-42.6c-5-2.6-10.3-4.8-15.7-6.5L196,71.1C194.3,65.6,192.1,60.4,189.5,55.4z"/>
				<path class="st0" d="M200.5,103.3L99,1.7c-2.9,0.1-5.8,0.3-8.6,0.6L200,111.9C200.3,109.1,200.5,106.2,200.5,103.3z"/>
				<path class="st1" d="M146.9,12.8l42.6,42.6C180.1,37.1,165.1,22.2,146.9,12.8z"/>
				<path class="st1" d="M196,71.1L131.2,6.3c-4-1.3-8.1-2.3-12.2-3l80,80C198.3,79.1,197.2,75,196,71.1z"/>
				<path class="st1" d="M200.6,100.9c0-2.4-0.1-4.7-0.3-7.1L108.4,2c-2.3-0.2-4.7-0.3-7.1-0.3c-0.8,0-1.6,0-2.4,0l101.5,101.5
					C200.5,102.5,200.6,101.7,200.6,100.9z"/>
				<path class="st1" d="M199.9,111.9L90.4,2.3c-2.7,0.3-5.4,0.7-8,1.2l116.4,116.4C199.2,117.3,199.7,114.6,199.9,111.9z"/>
				<path class="st1" d="M197,127.4L74.9,5.3c-2.4,0.7-4.7,1.4-7,2.2l126.9,126.9C195.6,132.1,196.3,129.8,197,127.4z"/>
				<path class="st1" d="M192.1,141L61.3,10.1c-2.1,0.9-4.2,1.9-6.2,3l134,134C190.2,145.2,191.2,143.1,192.1,141z"/>
				<path class="st1" d="M185.8,153.1L49.2,16.5c-1.9,1.2-3.7,2.4-5.5,3.7l138.4,138.4C183.4,156.8,184.6,154.9,185.8,153.1z"/>
				<path class="st1" d="M178.1,163.8L38.5,24.2c-1.7,1.4-3.3,2.8-4.9,4.3l140.2,140.2C175.3,167.1,176.7,165.5,178.1,163.8z"/>
				<path class="st1" d="M169.2,173.3L28.9,33.1c-1.5,1.6-2.9,3.2-4.3,4.9l139.6,139.6C165.9,176.3,167.6,174.8,169.2,173.3z"/>
				<path class="st1" d="M159,181.7L20.6,43.3c-1.3,1.8-2.5,3.6-3.7,5.5l136.5,136.5C155.4,184.2,157.2,182.9,159,181.7z"/>
				<path class="st1" d="M147.6,188.7l-134-134c-1.1,2-2.1,4.1-3,6.2l130.8,130.8C143.5,190.8,145.6,189.8,147.6,188.7z"/>
				<path class="st1" d="M134.8,194.3L7.9,67.5c-0.8,2.3-1.6,4.6-2.2,7l122.1,122.1C130.2,195.9,132.5,195.2,134.8,194.3z"/>
				<path class="st1" d="M120.3,198.3L4,81.9c-0.5,2.6-0.9,5.3-1.2,8l109.6,109.6C115,199.2,117.7,198.8,120.3,198.3z"/>
				<path class="st1" d="M101.4,200.1c0.8,0,1.6,0,2.3,0L2.2,98.6c0,0.8,0,1.6,0,2.3c0,2.4,0.1,4.8,0.3,7.1l91.9,91.9
					C96.6,200,99,200.1,101.4,200.1z"/>
				<path class="st1" d="M6.7,130.8l64.8,64.8c4,1.3,8.1,2.3,12.2,3l-80-80C4.5,122.7,5.5,126.8,6.7,130.8z"/>
				<path class="st1" d="M55.8,189.1l-42.5-42.5C22.7,164.7,37.6,179.6,55.8,189.1z"/>
			</g>
			<path class="st2" d="M101.5,12.8c48.5,0,87.9,39.4,87.9,87.9s-39.4,87.9-87.9,87.9s-87.9-39.4-87.9-87.9S53.1,12.8,101.5,12.8
				 M101.5,1c-55,0-99.7,44.6-99.7,99.7s44.6,99.7,99.7,99.7s99.7-44.6,99.7-99.7S156.6,1,101.5,1L101.5,1z"/>
		</g>
		<g>
			<path class="st2" d="M187.2,89.4c-2.9-0.6-5.9-1.3-9.2-2c0.1-2.4,0.1-4.2,0.2-6.8c-28.3-7.8-56.5-15.9-84.6-9.2
				C75.8,53,51.1,44.6,25.6,36.8c-1.1,1.3-2.2,2.7-3.3,4c22,7.5,44.2,13.9,61.1,28.8c2.3,2,4,5.8,3.4,8
				c-6.4,23.7-13.3,47.2-20.5,71.9c-18.4-15.3-40.7-22.6-63-30.3c1.3,6.9,3.2,13.5,5.8,19.8c4.7,1.7,9.4,3.4,14.1,5.2
				c13.2,5,25.4,11.4,35.3,20.8c2.9,2.7,10.8,5.3,14.4,4.4c16.3-3.7,33.2-0.8,50.1,2.4c12.4,2.4,24.5,6.1,36.8,9.2
				c0.4-0.3,0.7-0.5,1-0.8C169.7,150,178.4,119.7,187.2,89.4z M75.6,152c0.4-2.1,0.6-3.7,1.1-5.3c6.2-21.6,12.6-43,18.4-64.7
				c1.2-4.6,4.3-6.5,9.9-7.1c12.8-1.3,25.5-0.7,42.1,3.1c7.4,1.7,15,3.4,23.5,5.4c-7.5,26-14.8,51.4-22.2,77.1
				C124.4,155.4,100.3,148.6,75.6,152z"/>
			<path class="st2" d="M1.8,101.2c0,2.7,0.1,5.5,0.3,8.1C8.6,86.8,15,64.5,21.6,41.6C9.2,58.3,1.8,78.9,1.8,101.2z"/>
			<path class="st1" d="M86.9,77.7c0.6-2.2-1.1-6-3.4-8C66.6,54.8,44.4,48.4,22.3,40.8c-0.2,0.3-0.4,0.6-0.7,0.9
				C15,64.6,8.6,86.9,2.1,109.4c0.3,3.3,0.7,6.6,1.3,9.8c22.3,7.7,44.6,15,63,30.3C73.5,124.9,80.5,101.4,86.9,77.7z"/>
			<path class="st1" d="M170.6,83.5c-8.5-2-16.1-3.7-23.5-5.4c-16.6-3.8-29.3-4.4-42.1-3.1c-5.6,0.6-8.7,2.5-9.9,7.1
				c-5.9,21.6-12.3,43.1-18.4,64.7c-0.4,1.5-0.7,3.1-1.1,5.3c24.8-3.4,48.8,3.4,72.8,8.6C155.8,134.9,163.1,109.6,170.6,83.5z"/>
		</g>
		<path class="st2" d="M100.5,13.3c48.5,0,88,39.5,88,88s-39.5,88-88,88s-88-39.5-88-88S52,13.3,100.5,13.3 M100.5,1.5
			c-55.1,0-99.8,44.7-99.8,99.8S45.4,201,100.5,201s99.8-44.7,99.8-99.8S155.6,1.5,100.5,1.5L100.5,1.5z"/>
		<g>
			<path class="st2" d="M102.2,107.1c5.5,0.8,7-1.9,7.6-4.4c0.5-2,0.7-4.1,0.9-6.1c0.2-2.1,0.4-4,0.9-6.1c1.7-6.6,7-8.7,13.6-7.8
				l1.6,0.2l-1,4l-1.4-0.2c-4.6-0.7-6.7,1.4-7.7,5.3c-0.4,1.7-0.6,3.4-0.8,5.2c-0.1,1.8-0.4,3.6-0.9,5.5c-1.1,4.6-3.9,6.6-7.6,7v0.1
				c3.3,1.3,4.8,4,3.6,8.6c-0.5,1.9-1.2,3.7-1.9,5.4c-0.8,1.8-1.4,3.4-1.9,5.1c-1,4,0.2,6.5,4.5,7.1l1.4,0.2l-1,3.9l-1.6-0.2
				c-6.4-0.9-10.6-4.2-8.7-11.5c0.5-1.9,1.3-3.9,2.1-5.8c0.8-1.9,1.6-3.8,2.1-5.7c0.6-2.2,0.6-5.4-4.9-6.2L102.2,107.1z"/>
			<path class="st2" d="M147.1,117.4c-5.5-0.8-7.1,2.2-7.6,4.4c-0.5,1.9-0.7,3.9-0.9,5.9c-0.2,2-0.4,4-0.9,6
				c-1.9,7.3-7.4,9.1-13.7,8.2l-1.6-0.2l1-4l1.3,0.2c4.4,0.6,6.8-1.3,7.8-5.4c0.4-1.7,0.6-3.4,0.8-5.2c0.1-1.8,0.3-3.6,0.8-5.5
				c1.2-4.6,4-6.7,7.6-7v-0.1c-3.2-1.4-4.8-4-3.6-8.6c0.5-1.9,1.2-3.6,2-5.4c0.7-1.7,1.4-3.4,1.8-5c1-3.9-0.1-6.3-4.5-7.1l-1.4-0.2
				l1-4l1.5,0.2c6.6,0.9,10.6,4.4,8.9,11c-0.5,2-1.3,3.9-2.1,5.9s-1.6,3.9-2.2,5.9c-0.6,2.5-0.6,5.4,4.9,6.2L147.1,117.4z"/>
		</g>
	</g>
</g>
<rect x="335.7" y="56.1" class="st2" width="18.6" height="18.6"/>
</svg>
