<?xml version="1.0" encoding="UTF-8" standalone="no"?>
<!-- Created with Inkscape (http://www.inkscape.org/) -->

<svg
   xmlns:dc="http://purl.org/dc/elements/1.1/"
   xmlns:cc="http://creativecommons.org/ns#"
   xmlns:rdf="http://www.w3.org/1999/02/22-rdf-syntax-ns#"
   xmlns:svg="http://www.w3.org/2000/svg"
   xmlns="http://www.w3.org/2000/svg"
   xmlns:sodipodi="http://sodipodi.sourceforge.net/DTD/sodipodi-0.dtd"
   xmlns:inkscape="http://www.inkscape.org/namespaces/inkscape"
   width="225mm"
   height="150mm"
   viewBox="0 0 797.2441 531.49606"
   id="svg4174"
   version="1.1"
   inkscape:version="0.91 r13725"
   sodipodi:docname="logo-footer.svg">
  <defs
     id="defs4176" />
  <sodipodi:namedview
     id="base"
     pagecolor="#ffffff"
     bordercolor="#666666"
     borderopacity="1.0"
     inkscape:pageopacity="0.0"
     inkscape:pageshadow="2"
     inkscape:zoom="0.37666016"
     inkscape:cx="-144.42223"
     inkscape:cy="463.17817"
     inkscape:document-units="px"
     inkscape:current-layer="layer1"
     showgrid="false"
     inkscape:window-width="1366"
     inkscape:window-height="706"
     inkscape:window-x="-8"
     inkscape:window-y="-8"
     inkscape:window-maximized="1" />
  <metadata
     id="metadata4179">
    <rdf:RDF>
      <cc:Work
         rdf:about="">
        <dc:format>image/svg+xml</dc:format>
        <dc:type
           rdf:resource="http://purl.org/dc/dcmitype/StillImage" />
        <dc:title></dc:title>
      </cc:Work>
    </rdf:RDF>
  </metadata>
  <g
     inkscape:label="Layer 1"
     inkscape:groupmode="layer"
     id="layer1"
     transform="translate(0,-520.86614)">
    <path
       id="path29"
       inkscape:connector-curvature="0"
       inkscape:export-filename="C:\Users\anon\Desktop\logo4.0.png"
       inkscape:export-ydpi="90"
       inkscape:export-xdpi="90"
       d="m 64.432358,756.7924 c 0,-70.82172 24.232602,-133.67013 73.635832,-189.32694 17.97903,-20.63681 32.36225,-30.48619 42.21164,-30.48619 3.5958,0 7.19161,0.93804 9.84937,3.59582 2.65777,2.65776 4.53384,5.31553 4.53384,8.91134 0,5.31552 -6.25356,13.44517 -18.91705,25.95233 C 124.623,624.842 98.51434,685.81435 98.51434,758.51215 c 0,80.67112 26.89037,146.17731 79.88941,196.5186 10.78743,9.8493 16.10295,17.979 16.10295,24.2326 0,3.5958 -1.71973,7.1917 -4.53383,9.8494 -2.65778,2.6578 -6.25357,4.5338 -9.84938,4.5338 -12.50716,0 -29.54815,-14.3832 -52.06102,-42.9933 C 85.06916,897.65418 64.432358,833.08603 64.432358,756.7924 Z"
       style="fill:#7b6c45;fill-opacity:1;stroke-width:15;stroke-miterlimit:4;stroke-dasharray:none;stroke:#7b6c45;stroke-opacity:1" />
    <path
       id="path31"
       inkscape:connector-curvature="0"
       inkscape:export-filename="C:\Users\anon\Desktop\logo4.0.png"
       inkscape:export-ydpi="90"
       inkscape:export-xdpi="90"
       d="m 743.57054,774.77143 c 0,70.82174 -24.23261,133.67017 -73.63583,189.32692 -17.97903,20.6368 -32.36225,30.4862 -42.21164,30.4862 -3.5958,0 -7.1916,-0.938 -9.84938,-3.5957 -2.65776,-2.6577 -4.53383,-6.2537 -4.53383,-9.8494 0,-5.3155 6.25357,-13.4452 18.91706,-25.1707 51.12298,-49.40323 77.23165,-110.37558 77.23165,-183.07338 0,-80.67112 -26.89037,-146.17731 -79.88941,-196.51857 -10.78742,-9.84939 -16.10296,-17.97903 -16.10296,-24.23261 0,-3.59581 1.71973,-7.19161 4.53384,-9.84939 2.65777,-2.65776 6.25357,-4.53383 9.84938,-4.53383 11.72545,0 29.54814,14.38322 52.06102,42.99331 42.05528,53.93709 63.6301,118.6616 63.6301,194.01715 z"
       style="fill:#7b6c45;fill-opacity:1;stroke-width:15;stroke-miterlimit:4;stroke-dasharray:none;stroke:#7b6c45;stroke-opacity:1" />
    <g
       id="g33"
       transform="matrix(1.5633937,0,0,1.5633937,-3447.575,-62.738515)"
       inkscape:export-filename="C:\Users\anon\Desktop\logo4.0.png"
       inkscape:export-ydpi="90"
       inkscape:export-xdpi="90"
       style="fill:#7b6c45;fill-opacity:1;stroke-width:9.59451225;stroke-miterlimit:4;stroke-dasharray:none;stroke:#7b6c45;stroke-opacity:1">
      <line
         id="line35"
         x1="2368.6001"
         y1="636.70001"
         x2="2567.8"
         y2="636.70001"
         style="fill:#7b6c45;fill-opacity:1;stroke-width:9.59451225;stroke-miterlimit:4;stroke-dasharray:none;stroke:#7b6c45;stroke-opacity:1" />
      <path
         id="path37"
         inkscape:connector-curvature="0"
         d="m 2567.2,648.7 -199.1,0 c -6.3,0 -12.1,-5.2 -12.1,-12.1 0,-6.9 5.2,-12.1 12.1,-12.1 l 199.1,0 c 6.3,0 12.1,5.2 12.1,12.1 -0.1,7 -5.2,12.1 -12.1,12.1 z"
         style="fill:#7b6c45;fill-opacity:1;stroke-width:9.59451225;stroke-miterlimit:4;stroke-dasharray:none;stroke:#7b6c45;stroke-opacity:1" />
    </g>
    <path
       id="path3081"
       inkscape:connector-curvature="0"
       inkscape:export-filename="C:\Users\anon\Desktop\logo4.0.png"
       inkscape:export-ydpi="90"
       inkscape:export-xdpi="90"
       d="m 506.2474,681.28051 c -5.00287,-16.88465 -12.97618,-32.83128 -25.17064,-45.33842 -3.28313,-3.28312 -6.7226,-6.40992 -10.16206,-9.5367 -2.65777,-2.50142 -9.38036,-6.40992 -10.78742,-9.69305 7.19162,16.72831 14.22688,34.08199 8.91135,52.53004 -2.50143,8.28597 -11.56912,28.29742 -23.60724,23.13823 -11.25644,-4.84654 -10.00573,-28.61012 -10.94377,-38.14683 -2.34509,-23.60722 -7.66063,-47.05813 -20.16777,-67.38225 -6.87893,-11.1001 -15.79028,-20.94948 -27.04671,-27.67207 -14.85224,-8.755 -30.17349,-14.69589 -47.05815,-8.28599 3.75215,-1.40704 13.44518,9.8494 15.32126,12.03813 5.9409,7.03528 10.7874,15.32126 13.44519,24.07626 5.31554,17.82269 0.62534,38.30314 -5.62823,55.34414 -12.97616,35.3327 -34.55099,67.06958 -44.86939,103.34032 -3.59581,12.66348 -6.09724,25.63965 -6.72259,38.77216 -2.18875,41.42993 19.38607,79.4204 53.46807,102.55862 7.66063,5.31554 21.41849,11.88181 31.26786,8.44232 -28.6101,-15.32124 -38.1468,-27.8284 -42.5243,-45.80742 -10.31839,-41.74261 28.76644,-68.32031 45.65108,-101.30792 4.53386,-8.755 7.81698,-18.44803 6.56626,-28.45375 -0.469,-3.75215 -4.69017,-22.04386 -10.3184,-21.10582 17.041,-2.65777 28.1411,8.59866 33.92565,23.29457 6.09723,15.63393 9.84938,31.58055 7.03527,48.15253 -0.93804,5.47186 -5.00286,22.82554 2.97044,23.91992 11.10009,1.56339 20.48047,-13.13251 18.29171,-27.20307 -1.09437,-6.56625 -2.34509,-16.57196 -2.34509,-16.57196 11.72545,14.38323 17.04098,28.9228 18.76072,44.71305 3.12679,28.29743 -9.06769,65.66254 -31.73688,88.80077 9.53669,-9.69304 21.73117,-16.41564 30.95519,-26.89037 9.38036,-10.63109 16.57197,-22.82555 22.20018,-35.95806 12.66351,-29.07912 20.01145,-61.91039 17.82268,-93.64728 -0.78168,-15.16491 -2.97043,-31.11153 -7.50427,-46.1201 l 0,0 z"
       style="fill:#7b6c45;fill-opacity:1;stroke-width:15;stroke-miterlimit:4;stroke-dasharray:none;stroke:#7b6c45;stroke-opacity:1" />
  </g>
</svg>
