<?xml version="1.0" encoding="utf-8"?>
<!-- Generator: Adobe Illustrator 20.0.0, SVG Export Plug-In . SVG Version: 6.00 Build 0)  -->
<svg version="1.1" id="图层_1" xmlns="http://www.w3.org/2000/svg" xmlns:xlink="http://www.w3.org/1999/xlink" x="0px" y="0px"
	 viewBox="0 0 2139 800" style="enable-background:new 0 0 2139 800;" xml:space="preserve">
<style type="text/css">
	.st0{fill:#4CAF50;}
	.st1{fill:#ABBF7B;}
	.st2{fill:#C9E091;}
	.st3{fill:#C9E091;stroke:#4CAF50;stroke-width:6;stroke-miterlimit:10;}
</style>
<rect y="392.5" class="st0" width="2139" height="15"/>
<g id="_x35_">
	<g>
		<g>
			<g>
				<path class="st1" d="M1838.6,444.3l42.4,42.5c5,2.6,10.3,4.8,15.7,6.5l-64.5-64.7C1833.8,434,1836,439.3,1838.6,444.3z"/>
				<path class="st1" d="M1998.8,466.5l-140-140.2c-1.6,1.5-3.1,3-4.6,4.6l139.9,140.2C1995.7,469.7,1997.3,468.1,1998.8,466.5z"/>
				<path class="st1" d="M1989.2,475.4l-139.3-139.6c-1.4,1.7-2.7,3.4-4,5.2L1984,479.5C1985.9,478.2,1987.6,476.8,1989.2,475.4z"/>
				<path class="st1" d="M2019.8,432.2l-126.6-126.9c-2.2,0.8-4.4,1.7-6.6,2.6l130.5,130.9C2018.1,436.6,2019,434.4,2019.8,432.2z"
					/>
				<path class="st1" d="M1978.6,483.1l-136.3-136.5c-1.2,1.9-2.3,3.9-3.4,5.9l133.7,134C1974.7,485.4,1976.7,484.3,1978.6,483.1z"
					/>
				<path class="st1" d="M2007.1,456.4L1869,318c-1.8,1.3-3.5,2.6-5.2,4l139.3,139.6C2004.5,459.9,2005.8,458.2,2007.1,456.4z"/>
				<path class="st1" d="M1937.5,497.3l-109.2-109.6c-0.3,2.8-0.5,5.7-0.6,8.6l101.2,101.5C1931.8,497.8,1934.7,497.6,1937.5,497.3z
					"/>
				<path class="st1" d="M1966.5,489.5L1836,358.7c-1,2.2-1.8,4.4-2.6,6.6L1960,492.2C1962.2,491.3,1964.4,490.5,1966.5,489.5z"/>
				<path class="st1" d="M1908.9,496.4c3.5,0.6,7,1.1,10.5,1.3l-91.6-91.9c0.3,3.6,0.7,7.1,1.3,10.5L1908.9,496.4z"/>
				<path class="st1" d="M2023.7,417.7l-116.1-116.4c-2.5,0.5-5,1.1-7.5,1.8L2022,425.2C2022.7,422.7,2023.2,420.2,2023.7,417.7z"/>
				<path class="st1" d="M1952.9,494.4l-121.8-122.1c-0.7,2.4-1.2,4.9-1.7,7.4l116.1,116.4C1948.1,495.6,1950.5,495,1952.9,494.4z"
					/>
				<path class="st1" d="M2014.1,445l-133.7-134c-2,1.1-4,2.2-5.9,3.4L2010.8,451C2011.9,448.9,2013.1,447,2014.1,445z"/>
				<path class="st1" d="M2024,381.1l-79.8-80c-3.5-0.6-7-1.1-10.5-1.3l91.7,91.9C2025.1,388.1,2024.6,384.6,2024,381.1z"/>
				<path class="st1" d="M2014.5,353.2l-42.5-42.6c-5-2.6-10.3-4.8-15.7-6.5l64.6,64.8C2019.3,363.4,2017.1,358.2,2014.5,353.2z"/>
				<path class="st1" d="M2025.5,401.1l-101.2-101.6c-2.9,0.1-5.8,0.3-8.6,0.6L2025,409.7C2025.3,406.9,2025.5,404,2025.5,401.1z"/>
				<path class="st2" d="M1972,310.6l42.5,42.6C2005.1,334.9,1990.1,320,1972,310.6z"/>
				<path class="st2" d="M2021,368.9l-64.6-64.8c-4-1.3-8.1-2.3-12.2-3l79.8,80C2023.3,376.9,2022.2,372.8,2021,368.9z"/>
				<path class="st2" d="M2025.6,398.7c0-2.4-0.1-4.7-0.3-7.1l-91.7-91.8c-2.3-0.2-4.7-0.3-7.1-0.3c-0.8,0-1.6,0-2.4,0L2025.4,401
					C2025.5,400.3,2025.6,399.5,2025.6,398.7z"/>
				<path class="st2" d="M2024.9,409.7l-109.2-109.6c-2.7,0.3-5.4,0.7-8,1.2l116.1,116.4C2024.2,415.1,2024.7,412.4,2024.9,409.7z"
					/>
				<path class="st2" d="M2022,425.2l-121.8-122.1c-2.4,0.7-4.7,1.4-7,2.2l126.6,126.9C2020.6,429.9,2021.3,427.6,2022,425.2z"/>
				<path class="st2" d="M2017.1,438.8l-130.5-130.9c-2.1,0.9-4.2,1.9-6.2,3l133.7,134C2015.2,443,2016.2,440.9,2017.1,438.8z"/>
				<path class="st2" d="M2010.8,450.9l-136.3-136.6c-1.9,1.2-3.7,2.4-5.5,3.7l138.1,138.4C2008.4,454.6,2009.6,452.7,2010.8,450.9z
					"/>
				<path class="st2" d="M2003.1,461.6L1863.9,322c-1.7,1.4-3.3,2.8-4.9,4.3l139.9,140.2C2000.3,464.9,2001.7,463.3,2003.1,461.6z"
					/>
				<path class="st2" d="M1994.2,471.1l-140-140.2c-1.5,1.6-2.9,3.2-4.3,4.9l139.3,139.6C1990.9,474.1,1992.6,472.6,1994.2,471.1z"
					/>
				<path class="st2" d="M1984.1,479.5L1846,341.1c-1.3,1.8-2.5,3.6-3.7,5.5l136.2,136.5C1980.5,482,1982.3,480.7,1984.1,479.5z"/>
				<path class="st2" d="M1972.7,486.5l-133.7-134c-1.1,2-2.1,4.1-3,6.2l130.5,130.8C1968.6,488.6,1970.7,487.6,1972.7,486.5z"/>
				<path class="st2" d="M1959.9,492.1l-126.6-126.8c-0.8,2.3-1.6,4.6-2.2,7l121.8,122.1C1955.3,493.7,1957.6,493,1959.9,492.1z"/>
				<path class="st2" d="M1945.5,496.1l-116-116.4c-0.5,2.6-0.9,5.3-1.2,8l109.3,109.6C1940.2,497,1942.9,496.6,1945.5,496.1z"/>
				<path class="st2" d="M1926.6,497.9c0.8,0,1.6,0,2.3,0l-101.2-101.5c0,0.8,0,1.6,0,2.3c0,2.4,0.1,4.8,0.3,7.1l91.7,91.9
					C1921.8,497.8,1924.2,497.9,1926.6,497.9z"/>
				<path class="st2" d="M1832.1,428.6l64.6,64.8c4,1.3,8.1,2.3,12.2,3l-79.8-80C1829.9,420.5,1830.9,424.6,1832.1,428.6z"/>
				<path class="st2" d="M1881.1,486.9l-42.4-42.5C1848.1,462.5,1863,477.4,1881.1,486.9z"/>
			</g>
			<path class="st0" d="M1926.7,310.6c48.4,0,87.7,39.4,87.7,87.9s-39.3,87.9-87.7,87.9S1839,447,1839,398.5
				S1878.4,310.6,1926.7,310.6 M1926.7,298.8c-54.9,0-99.5,44.6-99.5,99.7s44.5,99.7,99.5,99.7s99.5-44.6,99.5-99.7
				S1981.7,298.8,1926.7,298.8L1926.7,298.8z"/>
		</g>
		<path class="st0" d="M1925.7,311.1c48.4,0,87.8,39.5,87.8,88s-39.4,88-87.8,88c-48.4,0-87.8-39.5-87.8-88
			S1877.3,311.1,1925.7,311.1 M1925.7,299.3c-55,0-99.6,44.7-99.6,99.8s44.6,99.7,99.6,99.7s99.6-44.7,99.6-99.8
			S1980.7,299.3,1925.7,299.3L1925.7,299.3z"/>
		<g>
			<g id="Layer_1_52_">
				<g>
					<path class="st3" d="M1902.3,394.8h3l1.5-2.6c0.7-1.3,1.7-2.4,2.8-3.3l12.6-23.4l-15-27.9c-1.4-2.6-4.5-3.8-7.3-2.8l-24,8.9
						c-1.7,0.6-3,2-3.6,3.7c-0.6,1.7-0.4,3.6,0.6,5.1l26.9,42.5C1900.5,394.9,1901.4,394.8,1902.3,394.8z"/>
					<path class="st3" d="M1978.8,347.5c-0.6-1.7-1.9-3.1-3.6-3.7l-24-8.9c-2.8-1-5.9,0.1-7.3,2.8l-26.2,48.7
						c1.8,0.1,3.6,0.6,5.2,1.5l2.6,1.5l2.6-1.5c1.8-1,3.8-1.6,5.9-1.6c4.2,0,8.2,2.3,10.3,5.9l1.5,2.6h3c0.9,0,1.8,0.1,2.6,0.3
						l26.9-42.5C1979.2,351.1,1979.4,349.2,1978.8,347.5z"/>
					<path class="st0" d="M1960.2,416.2l-5.5-3.2v-6.4c0-3.3-2.7-5.9-5.9-5.9h-6.4l-3.2-5.5c-1.6-2.8-5.3-3.8-8.1-2.2l-5.5,3.2
						l-5.5-3.2c-2.8-1.6-6.5-0.7-8.1,2.2l-3.2,5.5h-6.4c-3.3,0-5.9,2.7-5.9,5.9v6.4l-5.5,3.2c-2.8,1.6-3.8,5.3-2.2,8.1l3.2,5.5
						l-3.2,5.5c-1.6,2.8-0.7,6.5,2.2,8.1l5.5,3.2v6.4c0,3.3,2.7,5.9,5.9,5.9h6.4l3.2,5.5c1.6,2.8,5.3,3.8,8.1,2.2l5.5-3.2l5.5,3.2
						c0.9,0.5,2,0.8,3,0.8c2.1,0,4-1.1,5.2-3l3.2-5.5h6.4c3.3,0,5.9-2.7,5.9-5.9v-6.4l5.5-3.2c2.8-1.6,3.8-5.3,2.2-8.1l-3.2-5.5
						l3.2-5.5C1964,421.5,1963,417.9,1960.2,416.2z M1948.2,425.3l-11.4,8.3l4.3,13.3c0.4,1.2,0,2.4-1,3.1c-0.5,0.4-1.1,0.5-1.6,0.5
						c-0.6,0-1.2-0.2-1.7-0.5l-11.4-8.3L1914,450c-1,0.7-2.3,0.7-3.3,0s-1.4-2-1-3.1l4.3-13.3l-11.4-8.3c-1-0.7-1.4-2-1-3.1
						c0.4-1.1,1.5-1.9,2.7-1.9h14l4.3-13.3c0.4-1.2,1.5-1.9,2.7-1.9s2.3,0.8,2.7,1.9l4.3,13.3h14c1.2,0,2.3,0.8,2.7,1.9
						C1949.6,423.4,1949.2,424.6,1948.2,425.3z"/>
				</g>
			</g>
		</g>
	</g>
</g>
<g>
	<rect x="1842.8" y="179.9" class="st0" width="164.3" height="7.3"/>
	<rect x="1874" y="193" class="st0" width="101.7" height="7.3"/>
	<rect x="1897.2" y="206.1" class="st0" width="55.3" height="7.3"/>
	<rect x="1919.9" y="219.2" class="st0" width="10" height="91.4"/>
</g>
<g>
	<g id="_x34_">
		<g>
			<g>
				<g>
					<path class="st1" d="M1149.2,444.3l42.4,42.5c5,2.6,10.3,4.8,15.7,6.5l-64.5-64.7C1144.4,434,1146.6,439.3,1149.2,444.3z"/>
					<path class="st1" d="M1309.4,466.5l-140-140.2c-1.6,1.5-3.1,3-4.6,4.6l139.9,140.2C1306.3,469.7,1307.9,468.1,1309.4,466.5z"/>
					<path class="st1" d="M1299.8,475.4l-139.3-139.6c-1.4,1.7-2.7,3.4-4,5.2l138.1,138.5C1296.4,478.2,1298.1,476.8,1299.8,475.4z"
						/>
					<path class="st1" d="M1330.3,432.2l-126.6-126.9c-2.2,0.8-4.4,1.7-6.6,2.6l130.5,130.9C1328.6,436.6,1329.5,434.4,1330.3,432.2
						z"/>
					<path class="st1" d="M1289.1,483.1l-136.3-136.5c-1.2,1.9-2.3,3.9-3.4,5.9l133.7,134C1285.3,485.4,1287.3,484.3,1289.1,483.1z"
						/>
					<path class="st1" d="M1317.7,456.4L1179.6,318c-1.8,1.3-3.5,2.6-5.2,4l139.3,139.6C1315.1,459.9,1316.4,458.2,1317.7,456.4z"/>
					<path class="st1" d="M1248,497.3l-109.2-109.6c-0.3,2.8-0.5,5.7-0.6,8.6l101.2,101.5C1242.4,497.8,1245.3,497.6,1248,497.3z"/>
					<path class="st1" d="M1277.1,489.5l-130.5-130.8c-1,2.2-1.8,4.4-2.6,6.6l126.6,126.9C1272.8,491.3,1275,490.5,1277.1,489.5z"/>
					<path class="st1" d="M1219.5,496.4c3.5,0.6,7,1.1,10.5,1.3l-91.6-91.9c0.3,3.6,0.7,7.1,1.3,10.5L1219.5,496.4z"/>
					<path class="st1" d="M1334.2,417.7l-116.1-116.4c-2.5,0.5-5,1.1-7.5,1.8l121.9,122.1C1333.2,422.7,1333.7,420.2,1334.2,417.7z"
						/>
					<path class="st1" d="M1263.5,494.4l-121.8-122.1c-0.7,2.4-1.2,4.9-1.7,7.4l116.1,116.4C1258.6,495.6,1261.1,495,1263.5,494.4z"
						/>
					<path class="st1" d="M1324.7,445L1191,311c-2,1.1-4,2.2-5.9,3.4L1321.4,451C1322.5,448.9,1323.7,447,1324.7,445z"/>
					<path class="st1" d="M1334.5,381.1l-79.8-80c-3.5-0.6-7-1.1-10.5-1.3l91.7,91.9C1335.6,388.1,1335.1,384.6,1334.5,381.1z"/>
					<path class="st1" d="M1325.1,353.2l-42.5-42.6c-5-2.6-10.3-4.8-15.7-6.5l64.6,64.8C1329.8,363.4,1327.7,358.2,1325.1,353.2z"/>
					<path class="st1" d="M1336,401.1l-101.2-101.6c-2.9,0.1-5.8,0.3-8.6,0.6l109.3,109.6C1335.8,406.9,1336,404,1336,401.1z"/>
					<path class="st2" d="M1282.6,310.6l42.5,42.6C1315.7,334.9,1300.7,320,1282.6,310.6z"/>
					<path class="st2" d="M1331.5,368.9l-64.6-64.8c-4-1.3-8.1-2.3-12.2-3l79.8,80C1333.8,376.9,1332.7,372.8,1331.5,368.9z"/>
					<path class="st2" d="M1336.1,398.7c0-2.4-0.1-4.7-0.3-7.1l-91.7-91.8c-2.3-0.2-4.7-0.3-7.1-0.3c-0.8,0-1.6,0-2.4,0L1335.9,401
						C1336,400.3,1336.1,399.5,1336.1,398.7z"/>
					<path class="st2" d="M1335.4,409.7l-109.2-109.6c-2.7,0.3-5.4,0.7-8,1.2l116.1,116.4C1334.7,415.1,1335.2,412.4,1335.4,409.7z"
						/>
					<path class="st2" d="M1332.5,425.2l-121.8-122.1c-2.4,0.7-4.7,1.4-7,2.2l126.6,126.9C1331.1,429.9,1331.8,427.6,1332.5,425.2z"
						/>
					<path class="st2" d="M1327.7,438.8l-130.5-130.9c-2.1,0.9-4.2,1.9-6.2,3l133.7,134C1325.8,443,1326.8,440.9,1327.7,438.8z"/>
					<path class="st2" d="M1321.4,450.9l-136.3-136.6c-1.9,1.2-3.7,2.4-5.5,3.7l138.1,138.4C1319,454.6,1320.2,452.7,1321.4,450.9z"
						/>
					<path class="st2" d="M1313.7,461.6L1174.4,322c-1.7,1.4-3.3,2.8-4.9,4.3l139.9,140.2C1310.9,464.9,1312.3,463.3,1313.7,461.6z"
						/>
					<path class="st2" d="M1304.8,471.1l-140-140.2c-1.5,1.6-2.9,3.2-4.3,4.9l139.3,139.6C1301.5,474.1,1303.2,472.6,1304.8,471.1z"
						/>
					<path class="st2" d="M1294.6,479.5l-138.1-138.4c-1.3,1.8-2.5,3.6-3.7,5.5L1289,483.1C1291,482,1292.8,480.7,1294.6,479.5z"/>
					<path class="st2" d="M1283.3,486.5l-133.7-134c-1.1,2-2.1,4.1-3,6.2l130.5,130.8C1279.2,488.6,1281.3,487.6,1283.3,486.5z"/>
					<path class="st2" d="M1270.5,492.1l-126.6-126.8c-0.8,2.3-1.6,4.6-2.2,7l121.8,122.1C1265.9,493.7,1268.2,493,1270.5,492.1z"/>
					<path class="st2" d="M1256,496.1l-116-116.4c-0.5,2.6-0.9,5.3-1.2,8l109.3,109.6C1250.7,497,1253.4,496.6,1256,496.1z"/>
					<path class="st2" d="M1237.2,497.9c0.8,0,1.6,0,2.3,0l-101.2-101.5c0,0.8,0,1.6,0,2.3c0,2.4,0.1,4.8,0.3,7.1l91.7,91.9
						C1232.4,497.8,1234.8,497.9,1237.2,497.9z"/>
					<path class="st2" d="M1142.7,428.6l64.6,64.8c4,1.3,8.1,2.3,12.2,3l-79.8-80C1140.5,420.5,1141.5,424.6,1142.7,428.6z"/>
					<path class="st2" d="M1191.7,486.9l-42.4-42.5C1158.7,462.5,1173.5,477.4,1191.7,486.9z"/>
				</g>
				<path class="st0" d="M1237.3,310.6c48.4,0,87.7,39.4,87.7,87.9s-39.3,87.9-87.7,87.9s-87.7-39.4-87.7-87.9
					S1189,310.6,1237.3,310.6 M1237.3,298.8c-54.9,0-99.5,44.6-99.5,99.7s44.5,99.7,99.5,99.7s99.5-44.6,99.5-99.7
					S1292.2,298.8,1237.3,298.8L1237.3,298.8z"/>
			</g>
			<g>
				<path class="st0" d="M1322.8,387.2c-2.9-0.6-5.9-1.3-9.2-2c0.1-2.4,0.1-4.2,0.2-6.8c-28.2-7.8-56.4-15.9-84.4-9.2
					c-17.8-18.4-42.4-26.8-67.8-34.6c-1.1,1.3-2.2,2.7-3.3,4c21.9,7.5,44.1,13.9,60.9,28.8c2.3,2,4,5.8,3.4,8
					c-6.4,23.7-13.3,47.2-20.4,71.9c-18.4-15.3-40.6-22.6-62.8-30.3c1.3,6.9,3.2,13.5,5.8,19.8c4.7,1.7,9.4,3.4,14.1,5.2
					c13.2,5,25.3,11.4,35.2,20.8c2.9,2.7,10.8,5.3,14.4,4.4c16.3-3.7,33.1-0.8,50,2.4c12.4,2.4,24.4,6.1,36.7,9.2
					c0.4-0.3,0.7-0.5,1-0.8C1305.3,447.8,1314,417.5,1322.8,387.2z M1211.4,449.8c0.4-2.1,0.6-3.7,1.1-5.3
					c6.2-21.6,12.6-43,18.4-64.7c1.2-4.6,4.3-6.5,9.9-7.1c12.8-1.3,25.4-0.7,42,3.1c7.4,1.7,15,3.4,23.4,5.4
					c-7.5,26-14.8,51.4-22.1,77.1C1260.1,453.2,1236.1,446.4,1211.4,449.8z"/>
				<path class="st0" d="M1137.8,399c0,2.7,0.1,5.5,0.3,8.1c6.5-22.5,12.9-44.8,19.5-67.7C1145.2,356.1,1137.8,376.7,1137.8,399z"/>
				<path class="st2" d="M1222.7,375.5c0.6-2.2-1.1-6-3.4-8c-16.9-14.9-39-21.3-61-28.9c-0.2,0.3-0.4,0.6-0.7,0.9
					c-6.6,22.9-13,45.2-19.5,67.7c0.3,3.3,0.7,6.6,1.3,9.8c22.2,7.7,44.5,15,62.8,30.3C1209.3,422.7,1216.3,399.2,1222.7,375.5z"/>
				<path class="st2" d="M1306.2,381.3c-8.5-2-16.1-3.7-23.4-5.4c-16.6-3.8-29.2-4.4-42-3.1c-5.6,0.6-8.7,2.5-9.9,7.1
					c-5.9,21.6-12.3,43.1-18.4,64.7c-0.4,1.5-0.7,3.1-1.1,5.3c24.7-3.4,48.7,3.4,72.6,8.6C1291.4,432.7,1298.7,407.4,1306.2,381.3z"
					/>
			</g>
			<path class="st0" d="M1236.3,311.1c48.4,0,87.8,39.5,87.8,88s-39.4,88-87.8,88s-87.8-39.5-87.8-88S1187.9,311.1,1236.3,311.1
				 M1236.3,299.3c-55,0-99.6,44.7-99.6,99.8s44.6,99.7,99.6,99.7s99.6-44.7,99.6-99.8S1291.2,299.3,1236.3,299.3L1236.3,299.3z"/>
			<g>
				<path class="st0" d="M1238,404.9c5.5,0.8,7-1.9,7.6-4.4c0.5-2,0.7-4.1,0.9-6.1c0.2-2.1,0.4-4,0.9-6.1c1.7-6.6,7-8.7,13.6-7.8
					l1.6,0.2l-1,4l-1.4-0.2c-4.6-0.7-6.7,1.4-7.7,5.3c-0.4,1.7-0.6,3.4-0.8,5.2c-0.1,1.8-0.4,3.6-0.9,5.5c-1.1,4.6-3.9,6.6-7.6,7
					v0.1c3.3,1.3,4.8,4,3.6,8.6c-0.5,1.9-1.2,3.7-1.9,5.4c-0.8,1.8-1.4,3.4-1.9,5.1c-1,4,0.2,6.5,4.5,7.1l1.4,0.2l-1,3.9l-1.6-0.2
					c-6.4-0.9-10.6-4.2-8.7-11.5c0.5-1.9,1.3-3.9,2.1-5.8s1.6-3.8,2.1-5.7c0.6-2.2,0.6-5.4-4.9-6.2L1238,404.9z"/>
				<path class="st0" d="M1282.8,415.2c-5.5-0.8-7.1,2.2-7.6,4.4c-0.5,1.9-0.7,3.9-0.9,5.9c-0.2,2-0.4,4-0.9,6
					c-1.9,7.3-7.4,9.1-13.7,8.2l-1.6-0.2l1-4l1.3,0.2c4.4,0.6,6.8-1.3,7.8-5.4c0.4-1.7,0.6-3.4,0.8-5.2c0.1-1.8,0.3-3.6,0.8-5.5
					c1.2-4.6,4-6.7,7.6-7v-0.1c-3.2-1.4-4.8-4-3.6-8.6c0.5-1.9,1.2-3.6,2-5.4c0.7-1.7,1.4-3.4,1.8-5c1-3.9-0.1-6.3-4.5-7.1l-1.4-0.2
					l1-4l1.5,0.2c6.6,0.9,10.6,4.4,8.9,11c-0.5,2-1.3,3.9-2.1,5.9c-0.8,2-1.6,3.9-2.2,5.9c-0.6,2.5-0.6,5.4,4.9,6.2L1282.8,415.2z"
					/>
			</g>
		</g>
	</g>
	<g>
		<rect x="1155.1" y="612.8" class="st0" width="164.3" height="7.3"/>
		<rect x="1186.4" y="599.7" class="st0" width="101.7" height="7.3"/>
		<rect x="1209.6" y="586.6" class="st0" width="55.3" height="7.3"/>
		<rect x="1232.3" y="489.4" class="st0" width="10" height="91.4"/>
	</g>
</g>
<g>
	<g id="_x34__1_">
		<g>
			<g>
				<g>
					<path class="st1" d="M1493.9,444.3l42.4,42.5c5,2.6,10.3,4.8,15.7,6.5l-64.5-64.7C1489.1,434,1491.3,439.3,1493.9,444.3z"/>
					<path class="st1" d="M1654.1,466.5l-140-140.2c-1.6,1.5-3.1,3-4.6,4.6l139.9,140.2C1651,469.7,1652.6,468.1,1654.1,466.5z"/>
					<path class="st1" d="M1644.5,475.4l-139.3-139.6c-1.4,1.7-2.7,3.4-4,5.2l138.1,138.5C1641.1,478.2,1642.8,476.8,1644.5,475.4z"
						/>
					<path class="st1" d="M1675,432.2l-126.6-126.9c-2.2,0.8-4.4,1.7-6.6,2.6l130.5,130.9C1673.3,436.6,1674.2,434.4,1675,432.2z"/>
					<path class="st1" d="M1633.8,483.1l-136.3-136.5c-1.2,1.9-2.3,3.9-3.4,5.9l133.7,134C1630,485.4,1632,484.3,1633.8,483.1z"/>
					<path class="st1" d="M1662.4,456.4L1524.3,318c-1.8,1.3-3.5,2.6-5.2,4l139.3,139.6C1659.8,459.9,1661.1,458.2,1662.4,456.4z"/>
					<path class="st1" d="M1592.7,497.3l-109.2-109.6c-0.3,2.8-0.5,5.7-0.6,8.6l101.2,101.5C1587.1,497.8,1590,497.6,1592.7,497.3z"
						/>
					<path class="st1" d="M1621.8,489.5l-130.5-130.8c-1,2.2-1.8,4.4-2.6,6.6l126.6,126.9C1617.5,491.3,1619.7,490.5,1621.8,489.5z"
						/>
					<path class="st1" d="M1564.2,496.4c3.5,0.6,7,1.1,10.5,1.3l-91.6-91.9c0.3,3.6,0.7,7.1,1.3,10.5L1564.2,496.4z"/>
					<path class="st1" d="M1678.9,417.7l-116.1-116.4c-2.5,0.5-5,1.1-7.5,1.8l121.9,122.1C1677.9,422.7,1678.4,420.2,1678.9,417.7z"
						/>
					<path class="st1" d="M1608.2,494.4l-121.8-122.1c-0.7,2.4-1.2,4.9-1.7,7.4l116.1,116.4C1603.3,495.6,1605.8,495,1608.2,494.4z"
						/>
					<path class="st1" d="M1669.4,445l-133.7-134c-2,1.1-4,2.2-5.9,3.4L1666.1,451C1667.2,448.9,1668.4,447,1669.4,445z"/>
					<path class="st1" d="M1679.2,381.1l-79.8-80c-3.5-0.6-7-1.1-10.5-1.3l91.7,91.9C1680.3,388.1,1679.8,384.6,1679.2,381.1z"/>
					<path class="st1" d="M1669.8,353.2l-42.5-42.6c-5-2.6-10.3-4.8-15.7-6.5l64.6,64.8C1674.5,363.4,1672.4,358.2,1669.8,353.2z"/>
					<path class="st1" d="M1680.7,401.1l-101.2-101.6c-2.9,0.1-5.8,0.3-8.6,0.6l109.3,109.6C1680.5,406.9,1680.7,404,1680.7,401.1z"
						/>
					<path class="st2" d="M1627.3,310.6l42.5,42.6C1660.4,334.9,1645.4,320,1627.3,310.6z"/>
					<path class="st2" d="M1676.2,368.9l-64.6-64.8c-4-1.3-8.1-2.3-12.2-3l79.8,80C1678.5,376.9,1677.4,372.8,1676.2,368.9z"/>
					<path class="st2" d="M1680.8,398.7c0-2.4-0.1-4.7-0.3-7.1l-91.7-91.8c-2.3-0.2-4.7-0.3-7.1-0.3c-0.8,0-1.6,0-2.4,0L1680.6,401
						C1680.7,400.3,1680.8,399.5,1680.8,398.7z"/>
					<path class="st2" d="M1680.1,409.7l-109.2-109.6c-2.7,0.3-5.4,0.7-8,1.2L1679,417.7C1679.4,415.1,1679.9,412.4,1680.1,409.7z"
						/>
					<path class="st2" d="M1677.2,425.2l-121.8-122.1c-2.4,0.7-4.7,1.4-7,2.2L1675,432.2C1675.8,429.9,1676.5,427.6,1677.2,425.2z"
						/>
					<path class="st2" d="M1672.4,438.8l-130.5-130.9c-2.1,0.9-4.2,1.9-6.2,3l133.7,134C1670.5,443,1671.5,440.9,1672.4,438.8z"/>
					<path class="st2" d="M1666.1,450.9l-136.3-136.6c-1.9,1.2-3.7,2.4-5.5,3.7l138.1,138.4C1663.7,454.6,1664.9,452.7,1666.1,450.9
						z"/>
					<path class="st2" d="M1658.4,461.6L1519.1,322c-1.7,1.4-3.3,2.8-4.9,4.3l139.9,140.2C1655.6,464.9,1657,463.3,1658.4,461.6z"/>
					<path class="st2" d="M1649.5,471.1l-140-140.2c-1.5,1.6-2.9,3.2-4.3,4.9l139.3,139.6C1646.2,474.1,1647.9,472.6,1649.5,471.1z"
						/>
					<path class="st2" d="M1639.3,479.5l-138.1-138.4c-1.3,1.8-2.5,3.6-3.7,5.5l136.2,136.5C1635.7,482,1637.5,480.7,1639.3,479.5z"
						/>
					<path class="st2" d="M1628,486.5l-133.7-134c-1.1,2-2.1,4.1-3,6.2l130.5,130.8C1623.9,488.6,1626,487.6,1628,486.5z"/>
					<path class="st2" d="M1615.2,492.1l-126.6-126.8c-0.8,2.3-1.6,4.6-2.2,7l121.8,122.1C1610.6,493.7,1612.9,493,1615.2,492.1z"/>
					<path class="st2" d="M1600.7,496.1l-116-116.4c-0.5,2.6-0.9,5.3-1.2,8l109.3,109.6C1595.4,497,1598.1,496.6,1600.7,496.1z"/>
					<path class="st2" d="M1581.9,497.9c0.8,0,1.6,0,2.3,0L1483,396.4c0,0.8,0,1.6,0,2.3c0,2.4,0.1,4.8,0.3,7.1l91.7,91.9
						C1577.1,497.8,1579.5,497.9,1581.9,497.9z"/>
					<path class="st2" d="M1487.4,428.6l64.6,64.8c4,1.3,8.1,2.3,12.2,3l-79.8-80C1485.2,420.5,1486.2,424.6,1487.4,428.6z"/>
					<path class="st2" d="M1536.4,486.9l-42.4-42.5C1503.4,462.5,1518.2,477.4,1536.4,486.9z"/>
				</g>
				<path class="st0" d="M1582,310.6c48.4,0,87.7,39.4,87.7,87.9s-39.3,87.9-87.7,87.9s-87.7-39.4-87.7-87.9
					S1533.7,310.6,1582,310.6 M1582,298.8c-54.9,0-99.5,44.6-99.5,99.7s44.5,99.7,99.5,99.7s99.5-44.6,99.5-99.7
					S1636.9,298.8,1582,298.8L1582,298.8z"/>
			</g>
			<path class="st0" d="M1581,311.1c48.4,0,87.8,39.5,87.8,88s-39.4,88-87.8,88s-87.8-39.5-87.8-88S1532.6,311.1,1581,311.1
				 M1581,299.3c-55,0-99.6,44.7-99.6,99.8s44.6,99.7,99.6,99.7s99.6-44.7,99.6-99.8S1635.9,299.3,1581,299.3L1581,299.3z"/>
			<g>
				<g>
					<path class="st2" d="M1554.7,350c0-3.6,3.2-6.5,7.1-6.5l40.4,0c3.9,0,7.1,2.9,7.1,6.5l0,108.1c-5.8-4.5-15.9-13.9-24.5-22.4
						l-2.8-2.8l-2.8,2.8c-8.5,8.5-18.7,17.9-24.5,22.4L1554.7,350z"/>
					<path class="st0" d="M1561.8,347.5l40.4,0c1.7,0,3.1,1.1,3.1,2.5l0,99.5c-5.3-4.7-11.9-11-17.6-16.6l-5.7-5.6l-5.7,5.6
						c-5.7,5.7-12.3,11.9-17.6,16.7l0-99.5C1558.7,348.7,1560.1,347.5,1561.8,347.5 M1561.8,339.5c-6.1,0-11.1,4.7-11.1,10.5l0,114
						c0,0.5,0.2,0.7,0.6,0.7c4.5,0,30.7-26.1,30.7-26.1s26.2,26.1,30.6,26.1c0.4,0,0.6-0.2,0.6-0.7l0-114c0-5.8-5-10.5-11.1-10.5
						L1561.8,339.5L1561.8,339.5z"/>
				</g>
			</g>
		</g>
	</g>
	<g>
		<rect x="1499.8" y="612.8" class="st0" width="164.3" height="7.3"/>
		<rect x="1531.1" y="599.7" class="st0" width="101.7" height="7.3"/>
		<rect x="1554.3" y="586.6" class="st0" width="55.3" height="7.3"/>
		<rect x="1577" y="489.4" class="st0" width="10" height="91.4"/>
	</g>
</g>
<g>
	<g id="_x33_">
		<g>
			<g>
				<g>
					<path class="st1" d="M804.6,444.3l42.4,42.5c5,2.6,10.3,4.8,15.7,6.5l-64.6-64.7C799.8,434,802,439.3,804.6,444.3z"/>
					<path class="st1" d="M964.8,466.5l-140-140.2c-1.6,1.5-3.1,3-4.6,4.6l139.9,140.2C961.7,469.7,963.3,468.1,964.8,466.5z"/>
					<path class="st1" d="M955.2,475.4L815.9,335.8c-1.4,1.7-2.7,3.4-4,5.2L950,479.5C951.8,478.2,953.5,476.8,955.2,475.4z"/>
					<path class="st1" d="M985.7,432.2L859.1,305.3c-2.2,0.8-4.4,1.7-6.6,2.6L983,438.8C984,436.6,984.9,434.4,985.7,432.2z"/>
					<path class="st1" d="M944.5,483.1L808.3,346.6c-1.2,1.9-2.3,3.9-3.4,5.9l133.7,134C940.6,485.4,942.6,484.3,944.5,483.1z"/>
					<path class="st1" d="M973,456.4L835,318c-1.8,1.3-3.5,2.6-5.2,4l139.3,139.6C970.5,459.9,971.8,458.2,973,456.4z"/>
					<path class="st1" d="M903.4,497.3L794.2,387.7c-0.3,2.8-0.5,5.7-0.6,8.6l101.2,101.5C897.7,497.8,900.6,497.6,903.4,497.3z"/>
					<path class="st1" d="M932.4,489.5L802,358.7c-1,2.2-1.8,4.4-2.6,6.6L926,492.2C928.2,491.3,930.4,490.5,932.4,489.5z"/>
					<path class="st1" d="M874.9,496.4c3.5,0.6,7,1.1,10.5,1.3l-91.6-91.9c0.3,3.6,0.7,7.1,1.3,10.5L874.9,496.4z"/>
					<path class="st1" d="M989.6,417.7L873.5,301.3c-2.5,0.5-5,1.1-7.5,1.8l121.9,122.1C988.6,422.7,989.1,420.2,989.6,417.7z"/>
					<path class="st1" d="M918.9,494.4L797.1,372.3c-0.7,2.4-1.2,4.9-1.7,7.4l116.1,116.4C914,495.6,916.5,495,918.9,494.4z"/>
					<path class="st1" d="M980,445L846.4,311c-2,1.1-4,2.2-5.9,3.4L976.7,451C977.8,448.9,979,447,980,445z"/>
					<path class="st1" d="M989.9,381.1l-79.8-80c-3.5-0.6-7-1.1-10.5-1.3l91.7,91.9C991,388.1,990.5,384.6,989.9,381.1z"/>
					<path class="st1" d="M980.4,353.2l-42.5-42.6c-5-2.6-10.3-4.8-15.7-6.5l64.6,64.8C985.2,363.4,983,358.2,980.4,353.2z"/>
					<path class="st1" d="M991.4,401.1L890.2,299.5c-2.9,0.1-5.8,0.3-8.6,0.6l109.3,109.6C991.2,406.9,991.4,404,991.4,401.1z"/>
					<path class="st2" d="M937.9,310.6l42.5,42.6C971.1,334.9,956.1,320,937.9,310.6z"/>
					<path class="st2" d="M986.9,368.9l-64.6-64.8c-4-1.3-8.1-2.3-12.2-3l79.8,80C989.2,376.9,988.1,372.8,986.9,368.9z"/>
					<path class="st2" d="M991.5,398.7c0-2.4-0.1-4.7-0.3-7.1l-91.7-91.8c-2.3-0.2-4.7-0.3-7.1-0.3c-0.8,0-1.6,0-2.4,0L991.3,401
						C991.4,400.3,991.5,399.5,991.5,398.7z"/>
					<path class="st2" d="M990.8,409.7L881.6,300.1c-2.7,0.3-5.4,0.7-8,1.2l116.1,116.4C990.1,415.1,990.6,412.4,990.8,409.7z"/>
					<path class="st2" d="M987.9,425.2L866.1,303.1c-2.4,0.7-4.7,1.4-7,2.2l126.6,126.9C986.5,429.9,987.2,427.6,987.9,425.2z"/>
					<path class="st2" d="M983,438.8L852.5,307.9c-2.1,0.9-4.2,1.9-6.2,3l133.7,134C981.1,443,982.1,440.9,983,438.8z"/>
					<path class="st2" d="M976.7,450.9L840.5,314.3c-1.9,1.2-3.7,2.4-5.5,3.7l138.1,138.4C974.3,454.6,975.5,452.7,976.7,450.9z"/>
					<path class="st2" d="M969.1,461.6L829.8,322c-1.7,1.4-3.3,2.8-4.9,4.3l139.9,140.2C966.3,464.9,967.7,463.3,969.1,461.6z"/>
					<path class="st2" d="M960.2,471.1l-140-140.2c-1.5,1.6-2.9,3.2-4.3,4.9l139.3,139.6C956.9,474.1,958.6,472.6,960.2,471.1z"/>
					<path class="st2" d="M950,479.5L812,341.1c-1.3,1.8-2.5,3.6-3.7,5.5l136.2,136.5C946.4,482,948.2,480.7,950,479.5z"/>
					<path class="st2" d="M938.6,486.5l-133.7-134c-1.1,2-2.1,4.1-3,6.2l130.5,130.8C934.5,488.6,936.6,487.6,938.6,486.5z"/>
					<path class="st2" d="M925.9,492.1L799.3,365.3c-0.8,2.3-1.6,4.6-2.2,7l121.8,122.1C921.3,493.7,923.6,493,925.9,492.1z"/>
					<path class="st2" d="M911.4,496.1l-116-116.4c-0.5,2.6-0.9,5.3-1.2,8l109.3,109.6C906.1,497,908.8,496.6,911.4,496.1z"/>
					<path class="st2" d="M892.5,497.9c0.8,0,1.6,0,2.3,0L793.6,396.4c0,0.8,0,1.6,0,2.3c0,2.4,0.1,4.8,0.3,7.1l91.7,91.9
						C887.8,497.8,890.2,497.9,892.5,497.9z"/>
					<path class="st2" d="M798.1,428.6l64.6,64.8c4,1.3,8.1,2.3,12.2,3l-79.8-80C795.9,420.5,796.9,424.6,798.1,428.6z"/>
					<path class="st2" d="M847.1,486.9l-42.4-42.5C814,462.5,828.9,477.4,847.1,486.9z"/>
				</g>
				<path class="st0" d="M892.6,310.6c48.4,0,87.7,39.4,87.7,87.9s-39.3,87.9-87.7,87.9s-87.7-39.4-87.7-87.9
					S844.4,310.6,892.6,310.6 M892.6,298.8c-54.9,0-99.5,44.6-99.5,99.7s44.5,99.7,99.5,99.7s99.5-44.6,99.5-99.7
					S947.6,298.8,892.6,298.8L892.6,298.8z"/>
			</g>
			<g>
				<path class="st0" d="M978.1,387.2c-2.9-0.6-5.9-1.3-9.2-2c0.1-2.4,0.1-4.2,0.2-6.8c-28.2-7.8-56.4-15.9-84.4-9.2
					c-17.8-18.4-42.4-26.8-67.8-34.6c-1.1,1.3-2.2,2.7-3.3,4c21.9,7.5,44.1,13.9,60.9,28.8c2.3,2,4,5.8,3.4,8
					c-6.4,23.7-13.3,47.2-20.4,71.9c-18.4-15.3-40.6-22.6-62.8-30.3c1.3,6.9,3.2,13.5,5.8,19.8c4.7,1.7,9.4,3.4,14.1,5.2
					c13.2,5,25.3,11.4,35.2,20.8c2.9,2.7,10.8,5.3,14.4,4.4c16.3-3.7,33.1-0.8,50,2.4c12.4,2.4,24.4,6.1,36.7,9.2
					c0.4-0.3,0.7-0.5,1-0.8C960.7,447.8,969.4,417.5,978.1,387.2z M866.8,449.8c0.4-2.1,0.6-3.7,1.1-5.3c6.2-21.6,12.6-43,18.4-64.7
					c1.2-4.6,4.3-6.5,9.9-7.1c12.8-1.3,25.4-0.7,42,3.1c7.4,1.7,15,3.4,23.4,5.4c-7.5,26-14.8,51.4-22.1,77.1
					C915.5,453.2,891.5,446.4,866.8,449.8z"/>
				<path class="st0" d="M793.2,399c0,2.7,0.1,5.5,0.3,8.1c6.5-22.5,12.9-44.8,19.5-67.7C800.6,356.1,793.2,376.7,793.2,399z"/>
				<path class="st2" d="M878.1,375.5c0.6-2.2-1.1-6-3.4-8c-16.9-14.9-39-21.3-61-28.9c-0.2,0.3-0.4,0.6-0.7,0.9
					c-6.6,22.9-13,45.2-19.5,67.7c0.3,3.3,0.7,6.6,1.3,9.8c22.2,7.7,44.5,15,62.8,30.3C864.7,422.7,871.7,399.2,878.1,375.5z"/>
				<path class="st2" d="M961.6,381.3c-8.5-2-16.1-3.7-23.4-5.4c-16.6-3.8-29.2-4.4-42-3.1c-5.6,0.6-8.7,2.5-9.9,7.1
					c-5.9,21.6-12.3,43.1-18.4,64.7c-0.4,1.5-0.7,3.1-1.1,5.3c24.7-3.4,48.7,3.4,72.6,8.6C946.8,432.7,954.1,407.4,961.6,381.3z"/>
			</g>
			<path class="st0" d="M891.7,311.1c48.4,0,87.8,39.5,87.8,88s-39.4,88-87.8,88c-48.4,0-87.8-39.5-87.8-88S843.3,311.1,891.7,311.1
				 M891.7,299.3c-55,0-99.6,44.7-99.6,99.8s44.6,99.7,99.6,99.7s99.6-44.7,99.6-99.8S946.6,299.3,891.7,299.3L891.7,299.3z"/>
			<g>
				<path class="st0" d="M893.3,404.9c5.5,0.8,7-1.9,7.6-4.4c0.5-2,0.7-4.1,0.9-6.1c0.2-2.1,0.4-4,0.9-6.1c1.7-6.6,7-8.7,13.6-7.8
					l1.6,0.2l-1,4l-1.4-0.2c-4.6-0.7-6.7,1.4-7.7,5.3c-0.4,1.7-0.6,3.4-0.8,5.2c-0.1,1.8-0.4,3.6-0.9,5.5c-1.1,4.6-3.9,6.6-7.6,7
					v0.1c3.3,1.3,4.8,4,3.6,8.6c-0.5,1.9-1.2,3.7-1.9,5.4c-0.8,1.8-1.4,3.4-1.9,5.1c-1,4,0.2,6.5,4.5,7.1l1.4,0.2l-1,3.9l-1.6-0.2
					c-6.4-0.9-10.6-4.2-8.7-11.5c0.5-1.9,1.3-3.9,2.1-5.8s1.6-3.8,2.1-5.7c0.6-2.2,0.6-5.4-4.9-6.2L893.3,404.9z"/>
				<path class="st0" d="M938.1,415.2c-5.5-0.8-7.1,2.2-7.6,4.4c-0.5,1.9-0.7,3.9-0.9,5.9s-0.4,4-0.9,6c-1.9,7.3-7.4,9.1-13.7,8.2
					l-1.6-0.2l1-4l1.3,0.2c4.4,0.6,6.8-1.3,7.8-5.4c0.4-1.7,0.6-3.4,0.8-5.2c0.1-1.8,0.3-3.6,0.8-5.5c1.2-4.6,4-6.7,7.6-7v-0.1
					c-3.2-1.4-4.8-4-3.6-8.6c0.5-1.9,1.2-3.6,2-5.4c0.7-1.7,1.4-3.4,1.8-5c1-3.9-0.1-6.3-4.5-7.1l-1.4-0.2l1-4l1.5,0.2
					c6.6,0.9,10.6,4.4,8.9,11c-0.5,2-1.3,3.9-2.1,5.9s-1.6,3.9-2.2,5.9c-0.6,2.5-0.6,5.4,4.9,6.2L938.1,415.2z"/>
			</g>
		</g>
	</g>
	<g>
		<rect x="807.9" y="612.8" class="st0" width="164.3" height="7.3"/>
		<rect x="839.2" y="599.7" class="st0" width="101.7" height="7.3"/>
		<rect x="862.4" y="586.6" class="st0" width="55.3" height="7.3"/>
		<rect x="885" y="489.4" class="st0" width="10" height="91.4"/>
	</g>
</g>
<g>
	<g id="_x32_">
		<g>
			<g>
				<g>
					<path class="st1" d="M459.9,444.3l42.4,42.5c5,2.6,10.3,4.8,15.7,6.5l-64.5-64.7C455.2,434,457.3,439.3,459.9,444.3z"/>
					<path class="st1" d="M620.1,466.5l-140-140.2c-1.6,1.5-3.1,3-4.6,4.6l139.9,140.2C617,469.7,618.6,468.1,620.1,466.5z"/>
					<path class="st1" d="M610.6,475.4L471.3,335.8c-1.4,1.7-2.7,3.4-4,5.2l138.1,138.5C607.2,478.2,608.9,476.8,610.6,475.4z"/>
					<path class="st1" d="M641.1,432.2L514.5,305.3c-2.2,0.8-4.4,1.7-6.6,2.6l130.5,130.9C639.4,436.6,640.3,434.4,641.1,432.2z"/>
					<path class="st1" d="M599.9,483.1L463.6,346.6c-1.2,1.9-2.3,3.9-3.4,5.9l133.7,134C596,485.4,598,484.3,599.9,483.1z"/>
					<path class="st1" d="M628.4,456.4L490.4,318c-1.8,1.3-3.5,2.6-5.2,4l139.3,139.6C625.8,459.9,627.1,458.2,628.4,456.4z"/>
					<path class="st1" d="M558.8,497.3L449.6,387.7c-0.3,2.8-0.5,5.7-0.6,8.6l101.2,101.5C553.1,497.8,556,497.6,558.8,497.3z"/>
					<path class="st1" d="M587.8,489.5L457.3,358.7c-1,2.2-1.8,4.4-2.6,6.6l126.6,126.9C583.5,491.3,585.7,490.5,587.8,489.5z"/>
					<path class="st1" d="M530.3,496.4c3.5,0.6,7,1.1,10.5,1.3l-91.6-91.9c0.3,3.6,0.7,7.1,1.3,10.5L530.3,496.4z"/>
					<path class="st1" d="M645,417.7L528.9,301.3c-2.5,0.5-5,1.1-7.5,1.8l121.9,122.1C644,422.7,644.5,420.2,645,417.7z"/>
					<path class="st1" d="M574.3,494.4L452.5,372.3c-0.7,2.4-1.2,4.9-1.7,7.4l116.1,116.4C569.4,495.6,571.9,495,574.3,494.4z"/>
					<path class="st1" d="M635.4,445L501.7,311c-2,1.1-4,2.2-5.9,3.4L632.1,451C633.2,448.9,634.4,447,635.4,445z"/>
					<path class="st1" d="M645.3,381.1l-79.8-80c-3.5-0.6-7-1.1-10.5-1.3l91.7,91.9C646.4,388.1,645.9,384.6,645.3,381.1z"/>
					<path class="st1" d="M635.8,353.2l-42.5-42.6c-5-2.6-10.3-4.8-15.7-6.5l64.6,64.8C640.6,363.4,638.4,358.2,635.8,353.2z"/>
					<path class="st1" d="M646.8,401.1L545.5,299.5c-2.9,0.1-5.8,0.3-8.6,0.6l109.3,109.6C646.6,406.9,646.8,404,646.8,401.1z"/>
					<path class="st2" d="M593.3,310.6l42.5,42.6C626.4,334.9,611.5,320,593.3,310.6z"/>
					<path class="st2" d="M642.3,368.9l-64.6-64.8c-4-1.3-8.1-2.3-12.2-3l79.8,80C644.6,376.9,643.5,372.8,642.3,368.9z"/>
					<path class="st2" d="M646.9,398.7c0-2.4-0.1-4.7-0.3-7.1l-91.7-91.8c-2.3-0.2-4.7-0.3-7.1-0.3c-0.8,0-1.6,0-2.4,0L646.7,401
						C646.8,400.3,646.9,399.5,646.9,398.7z"/>
					<path class="st2" d="M646.2,409.7L536.9,300.1c-2.7,0.3-5.4,0.7-8,1.2l116.2,116.4C645.5,415.1,646,412.4,646.2,409.7z"/>
					<path class="st2" d="M643.3,425.2L521.5,303.1c-2.4,0.7-4.7,1.4-7,2.2l126.6,126.9C641.9,429.9,642.6,427.6,643.3,425.2z"/>
					<path class="st2" d="M638.4,438.8L507.9,307.9c-2.1,0.9-4.2,1.9-6.2,3l133.7,134C636.5,443,637.5,440.9,638.4,438.8z"/>
					<path class="st2" d="M632.1,450.9L495.9,314.3c-1.9,1.2-3.7,2.4-5.5,3.7l138.1,138.4C629.7,454.6,630.9,452.7,632.1,450.9z"/>
					<path class="st2" d="M624.4,461.6L485.2,322c-1.7,1.4-3.3,2.8-4.9,4.3l139.8,140.2C621.6,464.9,623,463.3,624.4,461.6z"/>
					<path class="st2" d="M615.6,471.1l-140-140.2c-1.5,1.6-2.9,3.2-4.3,4.9l139.3,139.6C612.3,474.1,614,472.6,615.6,471.1z"/>
					<path class="st2" d="M605.4,479.5L467.3,341.1c-1.3,1.8-2.5,3.6-3.7,5.5l136.2,136.5C601.8,482,603.6,480.7,605.4,479.5z"/>
					<path class="st2" d="M594,486.5l-133.7-134c-1.1,2-2.1,4.1-3,6.2l130.5,130.8C589.9,488.6,592,487.6,594,486.5z"/>
					<path class="st2" d="M581.2,492.1L454.7,365.3c-0.8,2.3-1.6,4.6-2.2,7l121.8,122.1C576.6,493.7,578.9,493,581.2,492.1z"/>
					<path class="st2" d="M566.8,496.1l-116-116.4c-0.5,2.6-0.9,5.3-1.2,8l109.3,109.6C561.5,497,564.2,496.6,566.8,496.1z"/>
					<path class="st2" d="M547.9,497.9c0.8,0,1.6,0,2.3,0L449,396.4c0,0.8,0,1.6,0,2.3c0,2.4,0.1,4.8,0.3,7.1l91.7,91.9
						C543.1,497.8,545.5,497.9,547.9,497.9z"/>
					<path class="st2" d="M453.5,428.6l64.6,64.8c4,1.3,8.1,2.3,12.2,3l-79.8-80C451.3,420.5,452.3,424.6,453.5,428.6z"/>
					<path class="st2" d="M502.4,486.9L460,444.4C469.4,462.5,484.3,477.4,502.4,486.9z"/>
				</g>
				<path class="st0" d="M548,310.6c48.4,0,87.7,39.4,87.7,87.9s-39.3,87.9-87.7,87.9s-87.7-39.4-87.7-87.9S499.7,310.6,548,310.6
					 M548,298.8c-54.9,0-99.5,44.6-99.5,99.7s44.5,99.7,99.5,99.7s99.5-44.6,99.5-99.7S603,298.8,548,298.8L548,298.8z"/>
			</g>
			<g>
				<path class="st0" d="M633.5,387.2c-2.9-0.6-5.9-1.3-9.2-2c0.1-2.4,0.1-4.2,0.2-6.8c-28.2-7.8-56.4-15.9-84.4-9.2
					c-17.8-18.4-42.4-26.8-67.8-34.6c-1.1,1.3-2.2,2.7-3.3,4c21.9,7.5,44.1,13.9,60.9,28.8c2.3,2,4,5.8,3.4,8
					c-6.4,23.7-13.3,47.2-20.4,71.9c-18.3-15.3-40.6-22.6-62.8-30.3c1.3,6.9,3.2,13.5,5.8,19.8c4.7,1.7,9.4,3.4,14.1,5.2
					c13.2,5,25.3,11.4,35.2,20.8c2.9,2.7,10.8,5.3,14.4,4.4c16.3-3.7,33.1-0.8,50,2.4c12.4,2.4,24.4,6.1,36.7,9.2
					c0.4-0.3,0.7-0.5,1-0.8C616.1,447.8,624.7,417.5,633.5,387.2z M522.2,449.8c0.4-2.1,0.6-3.7,1.1-5.3c6.2-21.6,12.6-43,18.4-64.7
					c1.2-4.6,4.3-6.5,9.9-7.1c12.8-1.3,25.4-0.7,42,3.1c7.4,1.7,15,3.4,23.4,5.4c-7.5,26-14.8,51.4-22.1,77.1
					C570.9,453.2,546.8,446.4,522.2,449.8z"/>
				<path class="st0" d="M448.6,399c0,2.7,0.1,5.5,0.3,8.1c6.5-22.5,12.9-44.8,19.5-67.7C456,356.1,448.6,376.7,448.6,399z"/>
				<path class="st2" d="M533.5,375.5c0.6-2.2-1.1-6-3.4-8c-16.9-14.9-39-21.3-61-28.9c-0.2,0.3-0.4,0.6-0.7,0.9
					c-6.6,22.9-13,45.2-19.5,67.7c0.3,3.3,0.7,6.6,1.3,9.8c22.2,7.7,44.5,15,62.8,30.3C520.1,422.7,527.1,399.2,533.5,375.5z"/>
				<path class="st2" d="M616.9,381.3c-8.5-2-16.1-3.7-23.4-5.4c-16.6-3.8-29.2-4.4-42-3.1c-5.6,0.6-8.7,2.5-9.9,7.1
					c-5.9,21.6-12.3,43.1-18.4,64.7c-0.4,1.5-0.7,3.1-1.1,5.3c24.7-3.4,48.7,3.4,72.6,8.6C602.2,432.7,609.5,407.4,616.9,381.3z"/>
			</g>
			<path class="st0" d="M547,311.1c48.4,0,87.8,39.5,87.8,88s-39.4,88-87.8,88s-87.8-39.5-87.8-88S498.6,311.1,547,311.1 M547,299.3
				c-55,0-99.6,44.7-99.6,99.8s44.6,99.7,99.6,99.7s99.6-44.7,99.6-99.8S602,299.3,547,299.3L547,299.3z"/>
			<g>
				<path class="st0" d="M548.7,404.9c5.5,0.8,7-1.9,7.6-4.4c0.5-2,0.7-4.1,0.9-6.1c0.2-2.1,0.4-4,0.9-6.1c1.7-6.6,7-8.7,13.6-7.8
					l1.6,0.2l-1,4l-1.4-0.2c-4.6-0.7-6.7,1.4-7.7,5.3c-0.4,1.7-0.6,3.4-0.8,5.2c-0.1,1.8-0.4,3.6-0.9,5.5c-1.1,4.6-3.9,6.6-7.6,7
					v0.1c3.3,1.3,4.8,4,3.6,8.6c-0.5,1.9-1.2,3.7-1.9,5.4c-0.8,1.8-1.4,3.4-1.9,5.1c-1,4,0.2,6.5,4.5,7.1l1.4,0.2l-1,3.9l-1.6-0.2
					c-6.4-0.9-10.6-4.2-8.7-11.5c0.5-1.9,1.3-3.9,2.1-5.8s1.6-3.8,2.1-5.7c0.6-2.2,0.6-5.4-4.9-6.2L548.7,404.9z"/>
				<path class="st0" d="M593.5,415.2c-5.5-0.8-7.1,2.2-7.6,4.4c-0.5,1.9-0.7,3.9-0.9,5.9s-0.4,4-0.9,6c-1.9,7.3-7.4,9.1-13.7,8.2
					l-1.6-0.2l1-4l1.3,0.2c4.4,0.6,6.8-1.3,7.8-5.4c0.4-1.7,0.6-3.4,0.8-5.2c0.1-1.8,0.3-3.6,0.8-5.5c1.2-4.6,4-6.7,7.6-7v-0.1
					c-3.2-1.4-4.8-4-3.6-8.6c0.5-1.9,1.2-3.6,2-5.4c0.7-1.7,1.4-3.4,1.8-5c1-3.9-0.1-6.3-4.5-7.1l-1.4-0.2l1-4l1.5,0.2
					c6.6,0.9,10.6,4.4,8.9,11c-0.5,2-1.3,3.9-2.1,5.9s-1.6,3.9-2.2,5.9c-0.6,2.5-0.6,5.4,4.9,6.2L593.5,415.2z"/>
			</g>
		</g>
	</g>
	<g>
		<rect x="464.9" y="612.8" class="st0" width="164.3" height="7.3"/>
		<rect x="496.2" y="599.7" class="st0" width="101.7" height="7.3"/>
		<rect x="519.4" y="586.6" class="st0" width="55.3" height="7.3"/>
		<rect x="542" y="489.4" class="st0" width="10" height="91.4"/>
	</g>
</g>
<g id="_x31_">
	<g>
		<g>
			<g>
				<path class="st1" d="M115.2,446.7l42.4,42.5c5,2.6,10.3,4.8,15.7,6.5L108.7,431C110.4,436.4,112.6,441.7,115.2,446.7z"/>
				<path class="st1" d="M275.4,468.9l-140-140.2c-1.6,1.5-3.1,3-4.6,4.6l139.9,140.2C272.3,472.1,273.9,470.5,275.4,468.9z"/>
				<path class="st1" d="M265.8,477.8L126.6,338.2c-1.4,1.7-2.7,3.4-4,5.2l138.1,138.5C262.4,480.6,264.1,479.2,265.8,477.8z"/>
				<path class="st1" d="M296.4,434.6L169.8,307.7c-2.2,0.8-4.4,1.7-6.6,2.6l130.5,130.9C294.7,439,295.6,436.8,296.4,434.6z"/>
				<path class="st1" d="M255.2,485.5L118.9,349c-1.2,1.9-2.3,3.9-3.4,5.9l133.7,134C251.3,487.8,253.3,486.7,255.2,485.5z"/>
				<path class="st1" d="M283.7,458.8L145.6,320.4c-1.8,1.3-3.5,2.6-5.2,4L279.7,464C281.1,462.3,282.4,460.6,283.7,458.8z"/>
				<path class="st1" d="M214.1,499.7L104.8,390.1c-0.3,2.8-0.5,5.7-0.6,8.6l101.2,101.5C208.4,500.2,211.3,500,214.1,499.7z"/>
				<path class="st1" d="M243.1,491.9L112.6,361.1c-1,2.2-1.8,4.4-2.6,6.6l126.6,126.9C238.8,493.7,241,492.9,243.1,491.9z"/>
				<path class="st1" d="M185.5,498.8c3.5,0.6,7,1.1,10.5,1.3l-91.6-91.9c0.3,3.6,0.7,7.1,1.3,10.5L185.5,498.8z"/>
				<path class="st1" d="M300.3,420.1L184.1,303.7c-2.5,0.5-5,1.1-7.5,1.8l121.9,122.1C299.3,425.1,299.8,422.6,300.3,420.1z"/>
				<path class="st1" d="M229.5,496.8L107.7,374.7c-0.7,2.4-1.2,4.9-1.7,7.4l116.1,116.4C224.6,498,227.1,497.4,229.5,496.8z"/>
				<path class="st1" d="M290.7,447.4L157,313.4c-2,1.1-4,2.2-5.9,3.4l136.3,136.6C288.5,451.3,289.7,449.4,290.7,447.4z"/>
				<path class="st1" d="M300.5,383.5l-79.8-80c-3.5-0.6-7-1.1-10.5-1.3l91.7,91.9C301.6,390.5,301.1,387,300.5,383.5z"/>
				<path class="st1" d="M291.1,355.6L248.6,313c-5-2.6-10.3-4.8-15.7-6.5l64.6,64.8C295.9,365.8,293.7,360.6,291.1,355.6z"/>
				<path class="st1" d="M302,403.5L200.8,301.9c-2.9,0.1-5.8,0.3-8.6,0.6l109.3,109.6C301.8,409.3,302,406.4,302,403.5z"/>
				<path class="st2" d="M248.6,313l42.5,42.6C281.7,337.3,266.7,322.4,248.6,313z"/>
				<path class="st2" d="M297.6,371.3L233,306.5c-4-1.3-8.1-2.3-12.2-3l79.8,80C299.9,379.3,298.8,375.2,297.6,371.3z"/>
				<path class="st2" d="M302.1,401.1c0-2.4-0.1-4.7-0.3-7.1l-91.7-91.8c-2.3-0.2-4.7-0.3-7.1-0.3c-0.8,0-1.6,0-2.4,0l101.2,101.5
					C302,402.7,302.1,401.9,302.1,401.1z"/>
				<path class="st2" d="M301.4,412.1L192.2,302.5c-2.7,0.3-5.4,0.7-8,1.2l116.1,116.4C300.7,417.5,301.2,414.8,301.4,412.1z"/>
				<path class="st2" d="M298.6,427.6L176.8,305.5c-2.4,0.7-4.7,1.4-7,2.2l126.6,126.9C297.2,432.3,297.9,430,298.6,427.6z"/>
				<path class="st2" d="M293.7,441.2L163.2,310.3c-2.1,0.9-4.2,1.9-6.2,3l133.7,134C291.8,445.4,292.8,443.3,293.7,441.2z"/>
				<path class="st2" d="M287.4,453.3L151.1,316.7c-1.9,1.2-3.7,2.4-5.5,3.7l138.1,138.4C285,457,286.2,455.1,287.4,453.3z"/>
				<path class="st2" d="M279.7,464L140.4,324.4c-1.7,1.4-3.3,2.8-4.9,4.3l139.9,140.2C276.9,467.3,278.3,465.7,279.7,464z"/>
				<path class="st2" d="M270.8,473.5l-140-140.2c-1.5,1.6-2.9,3.2-4.3,4.9l139.3,139.6C267.5,476.5,269.2,475,270.8,473.5z"/>
				<path class="st2" d="M260.6,481.9l-138-138.4c-1.3,1.8-2.5,3.6-3.7,5.5l136.2,136.5C257.1,484.4,258.9,483.1,260.6,481.9z"/>
				<path class="st2" d="M249.3,488.9l-133.7-134c-1.1,2-2.1,4.1-3,6.2l130.5,130.8C245.2,491,247.3,490,249.3,488.9z"/>
				<path class="st2" d="M236.5,494.5L109.9,367.7c-0.8,2.3-1.6,4.6-2.2,7l121.8,122.1C231.9,496.1,234.2,495.4,236.5,494.5z"/>
				<path class="st2" d="M222,498.5L106,382.1c-0.5,2.6-0.9,5.3-1.2,8l109.3,109.6C216.8,499.4,219.5,499,222,498.5z"/>
				<path class="st2" d="M203.2,500.3c0.8,0,1.6,0,2.3,0L104.2,398.8c0,0.8,0,1.6,0,2.3c0,2.4,0.1,4.8,0.3,7.1l91.7,91.9
					C198.4,500.2,200.8,500.3,203.2,500.3z"/>
				<path class="st2" d="M108.7,431l64.6,64.8c4,1.3,8.1,2.3,12.2,3l-79.8-80C106.5,422.9,107.5,427,108.7,431z"/>
				<path class="st2" d="M157.7,489.3l-42.4-42.5C124.7,464.9,139.6,479.8,157.7,489.3z"/>
			</g>
			<path class="st0" d="M203.3,313c48.4,0,87.7,39.4,87.7,87.9s-39.3,87.9-87.7,87.9s-87.7-39.4-87.7-87.9S155,313,203.3,313
				 M203.3,301.2c-54.9,0-99.5,44.6-99.5,99.7s44.5,99.7,99.5,99.7s99.5-44.6,99.5-99.7S258.3,301.2,203.3,301.2L203.3,301.2z"/>
		</g>
		<path class="st0" d="M202.3,313.5c48.4,0,87.8,39.5,87.8,88s-39.4,88-87.8,88s-87.8-39.5-87.8-88S153.9,313.5,202.3,313.5
			 M202.3,301.7c-55,0-99.6,44.7-99.6,99.8s44.6,99.7,99.6,99.7s99.6-44.7,99.6-99.8S257.3,301.7,202.3,301.7L202.3,301.7z"/>
		<g>
			<path class="st0" d="M165.9,457c-4.8-4.5-5.5-105.5,0-109.2s94.6,48,94.6,54.6S170.8,461.5,165.9,457z"/>
		</g>
		<g>
			<path class="st2" d="M165.3,448.6c-1.4-5.1-2.8-24.6-2.9-51.6c-0.1-28.3,1.2-47,2.7-51.8c5,1.1,22.1,9.2,46.5,23.3
				C235,382,251,393,254.5,396.8c-3.4,3.8-19.4,14.8-42.7,28.4C187.5,439.4,170.4,447.5,165.3,448.6z"/>
			<path class="st0" d="M167.4,349c6.6,2.5,21.2,9.6,42.5,21.9c21.2,12.3,34.7,21.4,40.1,25.9c-5.4,4.5-18.9,13.6-40,25.9
				c-22,12.8-36,19.6-42.4,21.9c-1-7.1-2.1-23.3-2.2-47.7C165.4,373.4,166.3,356.3,167.4,349 M164.2,342c-0.4,0-0.7,0.1-0.9,0.2
				c-5.5,3.7-4.8,104.7,0,109.2c0.2,0.2,0.5,0.3,1,0.3c11,0,93.6-48.5,93.6-54.9C257.9,390.4,174.9,342,164.2,342L164.2,342z"/>
		</g>
	</g>
</g>
<g>
	<rect x="121.2" y="179.9" class="st0" width="164.3" height="7.3"/>
	<rect x="152.4" y="193" class="st0" width="101.7" height="7.3"/>
	<rect x="175.6" y="206.1" class="st0" width="55.3" height="7.3"/>
	<rect x="198.3" y="219.2" class="st0" width="10" height="91.4"/>
</g>
<rect x="1498.2" y="219.2" class="st0" width="431.7" height="4"/>
<rect x="198.3" y="219.2" class="st0" width="446.7" height="4"/>
<g>
	<path d="M184.4,86.9h-3.5c-0.7-3.5-2.8-5.2-6.3-5.2c-2.4,0-4.3,1.2-5.6,3.5c-1.4,2.2-2,5.1-2,8.6c0,0.2,0,0.6,0,1.1h0.2
		c0.8-1.6,1.8-2.8,3.3-3.7c1.4-0.9,3-1.3,4.7-1.3c2.9,0,5.3,0.9,7.1,2.8S185,97,185,100s-1,5.5-2.9,7.5c-2,2-4.4,3-7.4,3
		c-3.7,0-6.5-1.4-8.4-4.1c-1.8-2.6-2.7-6.2-2.7-10.9c0-4.9,0.9-8.9,2.9-11.9c2-3.2,4.7-4.8,8.2-4.8
		C180.3,78.8,183.5,81.5,184.4,86.9z M169.5,94.9c-1.3,1.4-2,3.1-2,5.2s0.6,3.9,1.9,5.3c1.3,1.5,3,2.2,5.1,2.2s3.7-0.7,5-2.1
		c1.3-1.5,1.9-3.2,1.9-5.4c0-2.2-0.6-3.9-1.9-5.2c-1.3-1.4-3-2-5-2C172.5,92.8,170.8,93.5,169.5,94.9z"/>
	<path d="M194.5,105.5c0.5,0.5,0.8,1.1,0.8,1.8c0,0.8-0.3,1.4-0.8,1.8c-0.5,0.5-1.2,0.7-1.8,0.7c-0.7,0-1.3-0.3-1.8-0.7
		c-0.5-0.5-0.8-1.1-0.8-1.8c0-0.7,0.3-1.3,0.8-1.8s1.1-0.7,1.8-0.7S194,105,194.5,105.5z"/>
	<path d="M219.4,83.6c1.6,2.7,2.4,6.4,2.4,11s-0.8,8.3-2.4,11c-1.9,3.2-4.6,4.8-8.3,4.8s-6.4-1.6-8.3-4.8c-1.6-2.7-2.4-6.4-2.4-11
		s0.8-8.3,2.4-11c1.8-3.2,4.6-4.8,8.3-4.8C214.8,78.8,217.5,80.3,219.4,83.6z M205.2,86.2c-0.9,2.1-1.3,4.9-1.3,8.5
		c0,3.5,0.4,6.4,1.3,8.5c1.2,2.9,3.2,4.4,5.9,4.4s4.7-1.5,5.9-4.4c0.9-2.1,1.3-4.9,1.3-8.5s-0.5-6.4-1.3-8.5c-1.2-3-3.2-4.4-5.9-4.4
		S206.4,83.2,205.2,86.2z"/>
	<path d="M246.2,79.4v3.1h-14.9l-1,10.2h0.2c0.9-1,2-1.8,3.3-2.3c1.2-0.5,2.5-0.7,3.9-0.7c2.9,0,5.3,0.9,7.1,2.7
		c1.8,1.9,2.7,4.4,2.7,7.7c0,3.1-1.1,5.6-3.3,7.6c-2.1,1.8-4.6,2.8-7.6,2.8c-2.7,0-5-0.7-6.9-2.2c-2.1-1.6-3.3-3.8-3.5-6.6h3.5
		c0.2,1.9,0.9,3.4,2.3,4.4c1.2,0.9,2.8,1.4,4.7,1.4c2.1,0,3.9-0.7,5.3-2.1c1.4-1.4,2.1-3.1,2.1-5.3c0-2.4-0.7-4.3-2-5.6
		c-1.2-1.4-3-2-5.2-2c-1.5,0-2.7,0.3-3.9,0.9s-2.1,1.5-2.7,2.7H227l1.6-16.8L246.2,79.4L246.2,79.4z"/>
	<path d="M129.7,145.2c0,7.9-1.9,14.7-5.7,20.3l-2.4-2.1c3.3-4.7,5-10.7,5-18.2v-14.3h14.2c-0.6-1.6-1.3-3.1-2.1-4.5l3.2-0.5
		c0.6,1.5,1.3,3.1,2,5h13.7v12.5h-28v1.8H129.7z M129.7,133.8v6.7h25v-6.7H129.7z M157.3,165.6h-3v-2.2h-18.8v2.2h-3v-16.5h24.8
		V165.6z M154.3,160.5v-8.4h-18.8v8.4H154.3z"/>
	<path d="M183.7,140.8v3h-9.9c-1.7,6.5-3.2,11.1-4.5,13.9c3.4-0.7,6.8-1.7,10.1-2.9c-1.1-2.3-2.2-4.4-3.3-6.4l2.6-1.3
		c2.1,3.7,4,7.7,5.8,12l-2.7,1.4c-0.4-1.1-0.9-2.1-1.3-3.1c-4.5,1.6-9.5,2.9-14.8,3.8l-0.7-2.9c0.3-0.1,0.5-0.2,0.7-0.3
		c1.3-1.8,3-6.5,5.1-14.3h-5.9v-3h18.8L183.7,140.8L183.7,140.8z M182.1,129.3v3h-15.5v-3H182.1z M193.2,126.4v7.8h9.4
		c0,14.1-0.2,22.7-0.6,26.1c-0.4,3.2-2.4,4.8-5.8,4.8c-0.8,0-2.1,0-3.9-0.1l-0.7-2.7c1.6,0.1,3,0.2,4.2,0.2c1.8,0,2.9-1.1,3.2-3.3
		c0.3-2.4,0.5-9.7,0.6-21.9h-6.3v0.8c-0.1,12.7-3.1,21.9-9,27.7l-2.4-2.1c5.4-5.3,8.2-13.9,8.3-25.6v-0.8h-5.3v-3h5.3v-7.8
		L193.2,126.4L193.2,126.4z"/>
	<path d="M219.9,127.4c-1.1,3.3-2.5,6.5-4.2,9.4v28.6h-3.1v-23.9c-1.4,1.8-2.9,3.6-4.5,5.3l-1-3.2c4.6-5.1,7.9-11,10-17.6
		L219.9,127.4z M243.6,128.9c-1.5,10.3-4.4,18.6-9.1,25c3.5,3.8,7.5,6.8,12.1,9l-1.8,2.7c-4.7-2.4-8.8-5.4-12.2-9.3
		c-3.4,4-7.6,7.1-12.5,9.2l-1.7-2.7c4.8-2.1,8.8-5.1,12-9c-4.3-5.4-7.7-12.1-10.2-20.1l2.7-1.5c2.2,7.7,5.4,14,9.4,19.2
		c4.2-6,7-13.7,8.3-23L243.6,128.9z M235,135.5l-2.5,1.7c-1.6-2.9-3.6-6-6-9.2l2.4-1.7C231.5,129.7,233.5,132.8,235,135.5z"/>
	<path d="M269.8,144v2.9h-7.5V158c3.2-0.6,6.2-1.3,9.2-2.1v3c-6.2,1.5-12.8,2.7-19.9,3.8l-0.7-2.9c2.8-0.3,5.6-0.8,8.4-1.2v-11.7
		h-7.5V144H269.8z M271.9,133.9c-0.1-2.4-0.2-5-0.2-7.6h3.2c0,2.7,0,5.2,0.2,7.6h13.2v3h-13c0.5,7.2,1.6,13.1,3.3,17.9
		c1.8,4.7,3.4,7.1,4.8,7.1c0.9-0.1,1.8-2.6,2.7-7.4l2.8,1.5c-1.3,6.2-3,9.3-5.2,9.3c-3.8-0.2-7-5-9.5-14.3c-1-4.1-1.6-8.8-2-14.2
		H251v-3L271.9,133.9L271.9,133.9z M285.4,132.2l-2.6,1.3c-1.2-2.1-2.6-4-4-5.7l2.6-1.2C282.8,128.3,284.1,130.1,285.4,132.2z"/>
</g>
<g>
	<path d="M1900.6,79.4v2.9l-11.2,27.7h-3.7l11.4-27.3h-16.5v-3.2L1900.6,79.4L1900.6,79.4z"/>
	<path d="M1910,105.5c0.5,0.5,0.8,1.1,0.8,1.8c0,0.8-0.3,1.4-0.8,1.8s-1.2,0.7-1.8,0.7c-0.7,0-1.3-0.3-1.8-0.7
		c-0.5-0.5-0.8-1.1-0.8-1.8c0-0.7,0.3-1.3,0.8-1.8s1.1-0.7,1.8-0.7C1908.9,104.8,1909.5,105,1910,105.5z"/>
	<path d="M1934.9,83.6c1.6,2.7,2.4,6.4,2.4,11s-0.8,8.3-2.4,11c-1.9,3.2-4.6,4.8-8.3,4.8c-3.7,0-6.4-1.6-8.3-4.8
		c-1.6-2.7-2.4-6.4-2.4-11s0.8-8.3,2.4-11c1.8-3.2,4.6-4.8,8.3-4.8C1930.3,78.8,1933,80.3,1934.9,83.6z M1920.7,86.2
		c-0.9,2.1-1.3,4.9-1.3,8.5c0,3.5,0.4,6.4,1.3,8.5c1.2,2.9,3.2,4.4,5.9,4.4c2.7,0,4.7-1.5,5.9-4.4c0.9-2.1,1.3-4.9,1.3-8.5
		s-0.5-6.4-1.3-8.5c-1.2-3-3.2-4.4-5.9-4.4C1923.9,81.8,1921.9,83.2,1920.7,86.2z"/>
	<path d="M1857.5,141.1l-2.6,1.2c0,9.8-0.3,15.9-0.6,18.3c-0.3,2.7-2,4-4.9,4c-0.6,0-1.5,0-2.9-0.1l-0.7-2.7
		c1.2,0.1,2.3,0.1,3.2,0.1c1.4,0,2.2-0.9,2.4-2.5c0.3-1.7,0.4-6.8,0.5-15.2h-4.3c-0.3,9.8-2.8,16.9-7.5,21.3l-1.8-2.8
		c4-3.7,6.1-9.9,6.3-18.5h-3.7V142l-0.2,0.3l-2.4-2.1c2.4-3.3,4.2-7.7,5.4-13.3l2.7,1.1c-1.3,5.6-3,10-5,13.2h12.6
		c-1.5-5.1-3-9.6-4.7-13.6l2.8-0.9C1854.2,131.2,1856,136,1857.5,141.1z M1868.8,140.8v7.4c-0.1,4.7-1.1,8.4-2.9,11.2
		c-1.8,2.6-4.6,4.6-8.6,6.1l-1.7-2.7c3.8-1.4,6.4-3.2,7.9-5.4c1.4-2.4,2.1-5.5,2.2-9.2v-7.4L1868.8,140.8L1868.8,140.8z
		 M1877.3,127.9v2.9h-8.6c-0.1,1.6-0.3,3.2-0.4,4.7h7.6v20.1h-3v-17.2h-11.2v17.2h-3v-20.1h6.3c0.2-1.5,0.4-3,0.5-4.7h-8.3v-2.9
		H1877.3z M1877.5,163.1l-2.3,2.3c-1.7-2.3-4-4.8-6.9-7.5l2.1-2C1873.3,158.4,1875.7,160.8,1877.5,163.1z"/>
	<path d="M1899.2,150.1c0.1-1,0.2-2.2,0.3-3.6h3c0,1.3-0.1,2.5-0.2,3.6h16.9v3H1903c2.8,4.6,8.5,7.7,17.1,9.3l-1.2,2.9
		c-9.4-2.1-15.4-5.6-17.9-10.7c-2.6,5-8.7,8.6-18.4,10.9l-1.3-2.9c9.1-1.9,14.8-5.1,17-9.4h-16v-3h16.9L1899.2,150.1L1899.2,150.1z
		 M1896.9,126.5v19.7h-3.2v-6.1c-3.1,1.6-6.6,3.1-10.7,4.4l-1.2-2.8c4.6-1.4,8.6-3,11.9-4.7v-10.5L1896.9,126.5L1896.9,126.5z
		 M1891.6,133l-1.7,2.6c-2.3-2.1-4.7-3.7-7.1-4.8l1.7-2.4C1887.1,129.6,1889.5,131.1,1891.6,133z M1909.5,126.7
		c-0.4,1-0.9,2.1-1.5,3h10.3v2.6c-2.1,6.5-8,11-17.7,13.7l-1.5-2.7c3.3-0.9,6.2-1.9,8.6-3.2c-1.4-1.4-2.7-2.6-3.9-3.5l2.1-1.6
		c1.4,1.2,2.7,2.4,4,3.7c2.4-1.8,4.2-3.8,5.3-6.2h-9.4c-1.6,1.7-3.5,3.2-5.8,4.7l-1.9-2.5c4-2.3,6.8-5.1,8.2-8.4L1909.5,126.7z"/>
	<path d="M1936.5,127.4c-1.1,3.3-2.5,6.5-4.2,9.4v28.6h-3.1v-23.9c-1.4,1.8-2.9,3.6-4.5,5.3l-1-3.2c4.6-5.1,7.9-11,10-17.6
		L1936.5,127.4z M1960.2,128.9c-1.5,10.3-4.4,18.6-9.1,25c3.5,3.8,7.5,6.8,12.1,9l-1.8,2.7c-4.7-2.4-8.8-5.4-12.2-9.3
		c-3.4,4-7.6,7.1-12.5,9.2l-1.7-2.7c4.8-2.1,8.8-5.1,12-9c-4.3-5.4-7.7-12.1-10.2-20.1l2.7-1.5c2.2,7.7,5.4,14,9.4,19.2
		c4.2-6,7-13.7,8.3-23L1960.2,128.9z M1951.6,135.5l-2.5,1.7c-1.6-2.9-3.6-6-6-9.2l2.4-1.7C1948.1,129.7,1950.2,132.8,1951.6,135.5z
		"/>
	<path d="M1986.4,144v2.9h-7.5V158c3.2-0.6,6.2-1.3,9.2-2.1v3c-6.2,1.5-12.8,2.7-19.9,3.8l-0.7-2.9c2.8-0.3,5.6-0.8,8.4-1.2v-11.7
		h-7.5V144H1986.4z M1988.6,133.9c-0.1-2.4-0.2-5-0.2-7.6h3.2c0,2.7,0,5.2,0.2,7.6h13.2v3h-13c0.5,7.2,1.6,13.1,3.3,17.9
		c1.8,4.7,3.4,7.1,4.8,7.1c0.9-0.1,1.8-2.6,2.7-7.4l2.8,1.5c-1.3,6.2-3,9.3-5.2,9.3c-3.8-0.2-7-5-9.5-14.3c-1-4.1-1.6-8.8-2-14.2
		h-21.1v-3L1988.6,133.9L1988.6,133.9z M2002,132.2l-2.6,1.3c-1.2-2.1-2.6-4-4-5.7l2.6-1.2C1999.4,128.3,2000.7,130.1,2002,132.2z"
		/>
	<g>
		<path d="M1958.1,82.8c1.8,2.6,2.7,6.3,2.7,11c0,4.9-1,8.8-2.9,11.9c-2.1,3.2-4.8,4.8-8.2,4.8c-5.7,0-9-2.7-9.8-8.2h3.5
			c0.6,3.5,2.7,5.2,6.3,5.2c2.4,0,4.2-1.2,5.7-3.6c1.3-2.3,2-5.1,2-8.6c0-0.2,0-0.6,0-1.1h-0.2c-0.8,1.5-1.9,2.8-3.3,3.7
			c-1.4,0.9-3,1.3-4.8,1.3c-3,0-5.3-1-7.1-2.9c-1.8-1.8-2.6-4.2-2.6-7.2c0-3,0.9-5.5,2.9-7.5c1.9-2,4.4-3,7.4-3
			C1953.5,78.7,1956.2,80.1,1958.1,82.8z M1944.8,83.8c-1.3,1.4-1.9,3.2-1.9,5.4c0,2.1,0.6,3.9,1.9,5.2c1.2,1.3,2.9,2,5.1,2
			c2,0,3.6-0.7,5-2.1c1.3-1.4,2-3.1,2-5.2c0-2.1-0.6-3.9-1.9-5.3c-1.3-1.5-3-2.2-5.1-2.2C1947.8,81.7,1946.1,82.3,1944.8,83.8z"/>
	</g>
</g>
<g>
	<path d="M1164.3,637.9c-2.2,5.6-4.4,10-6.6,13.3c1.9-0.2,3.8-0.4,5.8-0.7c0.8-1.5,1.6-3.2,2.5-4.9l2.7,1
		c-3.8,7.2-6.9,12.4-9.4,15.4c3.1-0.6,6.2-1.4,9.2-2.4v2.8c-4.5,1.5-8.8,2.5-12.9,3l-0.9-2.8c0.6-0.3,1-0.6,1.4-0.9
		c1.6-1.6,3.5-4.4,5.7-8.4c-2.4,0.3-4.7,0.6-7.1,0.9l-0.7-2.8c0.5-0.2,0.9-0.6,1.3-1.1c2.3-3.9,4.3-8.5,6-13.6L1164.3,637.9z
		 M1169,670.6c-4.2,1.6-9,2.9-14.4,3.9l-0.4-3c5.6-0.9,10.6-2.3,14.8-3.9V670.6z M1190.2,647.3l-11,1.5c0.1,2.1,0.2,4,0.4,5.8
		l11.3-1.8l0.5,2.9l-11.5,1.8c0.1,0.8,0.2,1.5,0.3,2.2c0.4,2.2,0.9,4.1,1.5,5.9c2.3-2.1,4.4-4.5,6.2-7.3l2.4,1.7
		c-2.3,3.3-4.7,6.1-7.4,8.4c0.2,0.3,0.3,0.6,0.5,0.8c1.4,2.1,2.7,3.2,3.8,3.2c1.1,0,2.1-2.3,2.9-6.9l2.6,1.7
		c-1.2,5.6-2.9,8.5-5.1,8.5c-2.1-0.1-4-1.4-5.8-3.9c-0.4-0.5-0.7-1-1-1.6c-3.2,2.4-6.6,4.1-10.2,5.2l-1.8-2.5
		c3.9-1.3,7.5-3.1,10.6-5.4c-0.8-1.9-1.5-3.9-2-6.2c-0.3-1.1-0.4-2.2-0.6-3.3l-7.7,1.2l-0.4-2.9l7.7-1.2c-0.2-1.8-0.3-3.8-0.4-5.9
		l-6.2,0.9l-0.5-2.8l6.5-0.9V637h3.1v9.1l10.6-1.5L1190.2,647.3z M1188.9,642.1l-2.4,1.7c-1.2-1.7-2.9-3.5-5-5.5l2.4-1.5
		C1186.1,638.9,1187.7,640.6,1188.9,642.1z"/>
	<path d="M1235.1,639.2v3h-18.6v6.5c5.3,2.7,10.7,5.7,16.2,9.2l-1.8,2.7c-5.7-3.8-10.5-6.7-14.3-8.7v24.3h-3.1v-34h-16.3v-3H1235.1z
		"/>
	<path d="M1250.5,648.5v6.6h4.3v2.8h-4.3v6c1.6-0.3,3.2-0.7,4.6-1.1v2.9c-1.5,0.4-3,0.8-4.6,1.1v9.4h-3v-8.8
		c-2.5,0.5-5.1,0.9-7.8,1.2l-0.4-3c2.9-0.3,5.6-0.7,8.2-1.2V658h-7.1l-0.6-2.7c1.2-2.6,2.4-5.9,3.4-10h-3.8v-3h4.5
		c0.4-1.8,0.8-3.5,1.1-5.4l2.9,0.5c-0.3,1.7-0.7,3.3-1,4.9h7.7v3h-8.5c-1,3.8-2.1,7.1-3.2,9.9h4.6v-6.6h3L1250.5,648.5L1250.5,648.5
		z M1265.2,642.4v-5.3h2.9v5.3h5.7c-0.9-1.3-2.1-2.7-3.5-4.1l2.1-1.3c1.5,1.6,2.8,3.1,3.6,4.3l-1.6,1.1h3.9v2.9h-10.2v3.9h8.7v23.1
		c0,2.4-1.1,3.6-3.2,3.6h-3l-0.8-2.9l2.8,0.1c0.9,0,1.3-0.5,1.3-1.4v-5h-5.9v9.1h-2.9v-9.1h-5.6v9.4h-2.9v-26.9h8.5v-3.9h-9.1v-2.9
		L1265.2,642.4L1265.2,642.4z M1259.6,652v4.8h5.6V652H1259.6z M1259.6,664.1h5.6v-4.7h-5.6V664.1z M1274,652h-5.9v4.8h5.9V652z
		 M1274,659.4h-5.9v4.7h5.9V659.4z"/>
	<path d="M1308.4,660.6V658h3.1v2.7h9.4v3h-9.4v9.1c0,2.4-1.3,3.6-3.9,3.6h-5.5l-0.7-3c1.8,0.1,3.5,0.2,5.1,0.2
		c1.2,0,1.9-0.5,1.9-1.5v-8.3h-26v-3h26V660.6z M1314.4,648.8h-24.5v3.1c0,1.2,0.6,1.8,1.8,1.8h22.9c0.9,0,1.4-0.3,1.8-0.9
		c0.3-0.5,0.5-1.6,0.7-3.4l2.9,0.9c-0.2,1.9-0.5,3.3-0.9,4.1c-0.6,1.3-1.8,1.9-3.6,2h-24.9c-2.6,0-3.8-1.2-3.8-3.5v-14.4h27.6V648.8
		z M1311.3,646v-4.6h-21.4v4.6H1311.3z M1299.4,671.6l-2.3,2.3c-1.7-2.2-4.1-4.5-7.1-6.9l2.2-2.1
		C1295,667.1,1297.4,669.4,1299.4,671.6z"/>
	<path d="M1216.4,700.2h-3.5c-0.7-3.5-2.8-5.2-6.3-5.2c-2.4,0-4.3,1.2-5.6,3.5c-1.4,2.2-2,5.1-2,8.6c0,0.2,0,0.6,0,1.1h0.2
		c0.8-1.6,1.8-2.8,3.3-3.7c1.4-0.9,3-1.3,4.7-1.3c2.9,0,5.3,0.9,7.1,2.8c1.8,1.9,2.7,4.3,2.7,7.3s-1,5.5-2.9,7.5c-2,2-4.4,3-7.4,3
		c-3.7,0-6.5-1.4-8.4-4.1c-1.8-2.6-2.7-6.2-2.7-10.9c0-4.9,0.9-8.9,2.9-11.9c2-3.2,4.7-4.8,8.2-4.8
		C1212.3,692.1,1215.5,694.8,1216.4,700.2z M1201.5,708.2c-1.3,1.4-2,3.1-2,5.2s0.6,3.9,1.9,5.3c1.3,1.5,3,2.2,5.1,2.2
		s3.7-0.7,5-2.1c1.3-1.5,1.9-3.2,1.9-5.4s-0.6-3.9-1.9-5.2c-1.3-1.4-3-2-5-2C1204.5,706.1,1202.8,706.8,1201.5,708.2z"/>
	<path d="M1226.5,718.8c0.5,0.5,0.8,1.1,0.8,1.8c0,0.8-0.3,1.4-0.8,1.8c-0.5,0.5-1.2,0.7-1.8,0.7c-0.7,0-1.3-0.3-1.8-0.7
		c-0.5-0.5-0.8-1.1-0.8-1.8s0.3-1.3,0.8-1.8s1.1-0.7,1.8-0.7S1226,718.3,1226.5,718.8z"/>
	<path d="M1250.5,694.5c1.8,1.6,2.7,3.8,2.7,6.5s-1,5-3,7.2c-1.1,1.1-3.2,2.8-6.3,4.9c-3.9,2.6-6.1,5-6.7,7h16v3.1h-20.4
		c0-2.8,1-5.3,3-7.6c1.2-1.4,3.4-3.2,6.6-5.4c2.4-1.7,4-3,4.8-3.8c1.5-1.7,2.4-3.5,2.4-5.5c0-1.9-0.6-3.3-1.7-4.3s-2.7-1.5-4.7-1.5
		c-2.1,0-3.7,0.7-4.8,2.1c-1.2,1.4-1.8,3.4-1.9,6.1h-3.5c0-3.4,1-6.2,2.9-8.2c1.9-2.1,4.4-3.1,7.5-3.1
		C1246.4,692.1,1248.7,692.9,1250.5,694.5z"/>
	<path d="M1278.2,692.7v3.1h-14.9l-1,10.2h0.2c0.9-1,2-1.8,3.3-2.3c1.2-0.5,2.5-0.7,3.9-0.7c2.9,0,5.3,0.9,7.1,2.7
		c1.8,1.9,2.7,4.4,2.7,7.7c0,3.1-1.1,5.6-3.3,7.6c-2.1,1.8-4.6,2.8-7.6,2.8c-2.7,0-5-0.7-6.9-2.2c-2.1-1.6-3.3-3.8-3.5-6.6h3.5
		c0.2,1.9,0.9,3.4,2.3,4.4c1.2,0.9,2.8,1.4,4.7,1.4c2.1,0,3.9-0.7,5.3-2.1c1.4-1.4,2.1-3.1,2.1-5.3c0-2.4-0.7-4.3-2-5.6
		c-1.2-1.4-3-2-5.2-2c-1.5,0-2.7,0.3-3.9,0.9c-1.2,0.6-2.1,1.5-2.7,2.7h-3.3l1.6-16.8L1278.2,692.7L1278.2,692.7z"/>
</g>
<g>
	<path class="st0" d="M753.6,139.6c-6.7,16.9-13.4,30.7-20.2,41.2c4.9-0.6,9.8-1.1,14.8-1.8c2.5-4.8,5-9.9,7.7-15.3l11.9,4.5
		c-11.3,21.8-20.9,37.8-28.7,47.9c9-2,17.9-4.5,27.2-7.6v11.9c-15.1,5-29.4,8.5-42.8,10.2l-3.6-12c2.4-1,4.3-2.2,6-3.8
		c4.2-4.6,9.5-12.6,16-23.9c-6.7,0.8-13.6,1.8-20.7,2.8l-3.2-12c2-0.8,3.8-2.5,5.5-4.9c6.7-12.6,12.5-26.7,17.5-42.1L753.6,139.6z
		 M767.7,247.3c-13.7,5.3-29.3,9.5-46.8,12.7l-1.7-13c18.5-3.1,34.7-7.1,48.4-12.2L767.7,247.3L767.7,247.3z M837.7,171.4l-35,4.9
		c0.3,5.6,0.6,10.8,1.1,15.8l35.8-5.6l2,12.6l-36.3,5.7l0.6,4.1c1.1,6.6,2.7,12.5,4.5,17.6c6.4-6.2,12.3-13.2,17.5-21l10.5,7.1
		c-7,10.1-14.4,18.9-22.5,26.2c4.2,6.4,8,9.8,11.3,9.8c3.2,0,5.9-6.7,8.1-20l11.3,7.6c-4.2,17.9-10.1,27-17.9,27
		c-7-0.1-13.7-4.5-20-12.9c-1-1.3-1.8-2.5-2.5-3.6c-10.1,7.3-20.7,12.6-31.9,16l-7.7-10.6c12.6-3.9,23.8-9.5,33.6-16.8
		c-2.5-5.9-4.5-12.3-6.2-19.3c-0.7-2.9-1.3-6-1.8-9.1l-23.9,3.8l-1.8-12.6l24.1-3.8c-0.6-5.2-0.8-10.5-1.1-16.1l-18.6,2.7l-2-12.3
		l20.3-2.9v-30.1h13.3v28.3l33.5-4.6L837.7,171.4z M833.8,151.4l-10.4,7.3c-3.8-5.3-9-11.1-15.4-17.4l10.1-6.4
		C824.8,141.3,830.2,146.8,833.8,151.4z"/>
	<path class="st0" d="M978.4,135.4v42.1h51.8v12.9h-51.8v56.3h62.6v12.9H915.6v-12.9h49.1V135.4H978.4z"/>
	<path class="st0" d="M1115.1,263.4l-2.9-12.7c3.9,0.6,7.6,0.8,11.1,0.8c3.4,0,5-2,5-5.6v-29.5c-5.5,2-10.9,3.8-16.2,5.5l-3.4-13.4
		c6.7-1.4,13.2-3.2,19.6-5.3v-29.1h-16.8v-12.7h16.8v-25.3h13v25.3h10.5v12.7h-10.5v24.2c4.5-2,9-4.1,13.4-6.3v13
		c-4.5,2.2-9,4.2-13.4,6.2v38.1c0,9.4-4.5,14.1-13.4,14.1H1115.1z M1176.5,135.9h12.2v67.5c-0.4,28.3-9.1,49-25.9,62.2l-9.9-8.8
		c13.7-9.8,21.4-24.6,23.2-44.8c-5.6,6.9-11.8,12.7-18.8,17.8l-7.1-12c9.9-5.5,18.8-12.6,26.3-21.6V135.9z M1176.4,185.8l-10.1,5.2
		c-3.9-11.5-8-21.7-12.3-30.7l10.9-5.2C1168.8,164.4,1172.7,174.6,1176.4,185.8z M1236.2,157c-4.8,11.8-10.2,22-16.4,30.7l-9.5-6.9
		v11.1c9.8,6,18.9,13.2,27.2,21.4l-7.4,11.6c-6.6-7.8-13.2-14.3-19.7-19.6v39.3c0,3.9,1.3,6,3.8,6h4.6c2.2,0,3.9-1,5-2.7
		c1.1-2.1,2-8.3,2.4-18.6l11.9,3.8c-1.1,14-2.9,22.5-5.5,25.3c-2.5,2.5-6.4,3.8-11.5,3.8h-10.8c-8.4,0-12.6-5-12.6-15.1V135.7h12.6
		v43.4c5.7-8,10.5-17.2,14.4-27.9L1236.2,157z"/>
	<path class="st0" d="M1341.4,136v23.1h26.5v12.3h-26.5v23h21.4v53.3c10.2-5.2,19.5-11.9,27.9-20.3c-1.7-4.9-3.1-10.2-4.5-16
		c-1.7-7.3-3.1-15.5-4.1-24.8l-18.2,3.4l-2-12.2l19-3.4c-0.8-11.6-1.3-24.5-1.3-38.6h12.9c0.1,13.7,0.6,25.8,1.3,36.3l36.1-6.4
		l1.8,12.2l-37.1,6.6c0.8,9.4,2,17.1,3.4,23.1l2.1,9.1c6.4-8.4,12.3-17.9,17.6-28.7l10.4,7c-7.3,14-15.1,25.9-23.5,35.8
		c1.1,3.1,2.4,5.6,3.6,7.8c3.6,6.2,6.4,9.4,8.4,9.4c2.2,0,4.5-6.6,6.7-19.6l10.8,5.9c-3.5,19-8.7,28.6-15.4,28.6
		c-5.6,0-11.3-4.2-17.2-12.6c-2.2-2.9-4.2-6.3-5.9-9.9c-9.7,9.1-19.9,15.8-30.7,20.2l-7.6-10.2c0.3-0.3,0.7-0.4,1-0.4h-35.6v9.7
		H1310v-65.1h18.3V136H1341.4z M1350.3,237.6v-30.9H1323v30.9H1350.3z M1423.9,157.3l-9.8,6.7c-3.8-5.9-9-12.3-15.4-19.5l9.5-5.9
		C1414.9,145.8,1420.3,152,1423.9,157.3z"/>
</g>
<g>
	<path d="M475.8,637.6c-2.2,5.6-4.4,10-6.6,13.3c1.9-0.2,3.8-0.4,5.8-0.7c0.8-1.5,1.6-3.2,2.5-4.9l2.7,1c-3.8,7.2-6.9,12.4-9.4,15.4
		c3.1-0.6,6.2-1.4,9.2-2.4v2.8c-4.5,1.5-8.8,2.5-12.9,3l-0.9-2.8c0.6-0.3,1-0.6,1.4-0.9c1.6-1.6,3.5-4.4,5.7-8.4
		c-2.4,0.3-4.7,0.6-7.1,0.9l-0.7-2.8c0.5-0.2,0.9-0.6,1.3-1.1c2.3-3.9,4.3-8.5,6-13.6L475.8,637.6z M480.5,670.3
		c-4.2,1.6-9,2.9-14.4,3.9l-0.4-3c5.6-0.9,10.6-2.3,14.8-3.9V670.3L480.5,670.3z M501.6,647l-11,1.5c0.1,2.1,0.2,4,0.4,5.8l11.3-1.8
		l0.5,2.9l-11.5,1.8c0.1,0.8,0.2,1.5,0.3,2.2c0.4,2.2,0.9,4.1,1.5,5.9c2.3-2.1,4.4-4.5,6.2-7.3l2.4,1.7c-2.3,3.3-4.7,6.1-7.4,8.4
		c0.2,0.3,0.3,0.6,0.5,0.8c1.4,2.1,2.7,3.2,3.8,3.2s2.1-2.3,2.9-6.9l2.6,1.7c-1.2,5.6-2.9,8.5-5.1,8.5c-2.1-0.1-4-1.4-5.8-3.9
		c-0.4-0.5-0.7-1-1-1.6c-3.2,2.4-6.6,4.1-10.2,5.2l-1.8-2.5c3.9-1.3,7.5-3.1,10.6-5.4c-0.8-1.9-1.5-3.9-2-6.2
		c-0.3-1.1-0.4-2.2-0.6-3.3l-7.7,1.2l-0.4-2.9l7.7-1.2c-0.2-1.8-0.3-3.8-0.4-5.9l-6.2,0.9l-0.5-2.8l6.5-0.9v-9.5h3.1v9.1l10.6-1.5
		L501.6,647z M500.4,641.8l-2.4,1.7c-1.2-1.7-2.9-3.5-5-5.5l2.4-1.5C497.5,638.6,499.2,640.3,500.4,641.8z"/>
	<path d="M546.6,638.9v3H528v6.5c5.3,2.7,10.7,5.7,16.2,9.2l-1.8,2.7c-5.7-3.8-10.5-6.7-14.3-8.7v24.3H525v-34h-16.3v-3H546.6z"/>
	<path d="M562,648.2v6.6h4.3v2.8H562v6c1.6-0.3,3.2-0.7,4.6-1.1v2.9c-1.5,0.4-3,0.8-4.6,1.1v9.4h-3v-8.8c-2.5,0.5-5.1,0.9-7.8,1.2
		l-0.4-3c2.9-0.3,5.6-0.7,8.2-1.2v-6.5h-7.1l-0.6-2.7c1.2-2.6,2.4-5.9,3.4-10h-3.8v-3h4.5c0.4-1.8,0.8-3.5,1.1-5.4l2.9,0.5
		c-0.3,1.7-0.7,3.3-1,4.9h7.7v3h-8.5c-1,3.8-2.1,7.1-3.2,9.9h4.6v-6.6L562,648.2L562,648.2z M576.7,642.1v-5.3h2.9v5.3h5.7
		c-0.9-1.3-2.1-2.7-3.5-4.1l2.1-1.3c1.5,1.6,2.8,3.1,3.6,4.3l-1.6,1.1h3.9v2.9h-10.2v3.9h8.7V672c0,2.4-1.1,3.6-3.2,3.6h-3l-0.8-2.9
		l2.8,0.1c0.9,0,1.3-0.5,1.3-1.4v-5h-5.9v9.1h-2.9v-9.1H571v9.4h-2.9v-26.9h8.5V645h-9.1v-2.9H576.7z M571.1,651.7v4.8h5.6v-4.8
		H571.1z M571.1,663.8h5.6v-4.7h-5.6V663.8z M585.5,651.7h-5.9v4.8h5.9V651.7z M585.5,659.1h-5.9v4.7h5.9V659.1z"/>
	<path d="M619.8,660.3v-2.7h3.1v2.7h9.4v3h-9.4v9.1c0,2.4-1.3,3.6-3.9,3.6h-5.5l-0.7-3c1.8,0.1,3.5,0.2,5.1,0.2
		c1.2,0,1.9-0.5,1.9-1.5v-8.3h-26v-3L619.8,660.3L619.8,660.3z M625.9,648.5h-24.5v3.1c0,1.2,0.6,1.8,1.8,1.8h22.9
		c0.9,0,1.4-0.3,1.8-0.9c0.3-0.5,0.5-1.6,0.7-3.4l2.9,0.9c-0.2,1.9-0.5,3.3-0.9,4.1c-0.6,1.3-1.8,1.9-3.6,2h-24.9
		c-2.6,0-3.8-1.2-3.8-3.5v-14.4h27.6V648.5z M622.8,645.7v-4.6h-21.4v4.6H622.8z M610.9,671.3l-2.3,2.3c-1.7-2.2-4.1-4.5-7.1-6.9
		l2.2-2.1C606.5,666.8,608.9,669.1,610.9,671.3z"/>
	<path d="M532.1,699.9h-3.5c-0.7-3.5-2.8-5.2-6.3-5.2c-2.4,0-4.3,1.2-5.6,3.5c-1.4,2.2-2,5.1-2,8.6c0,0.2,0,0.6,0,1.1h0.2
		c0.8-1.6,1.8-2.8,3.3-3.7c1.4-0.9,3-1.3,4.7-1.3c2.9,0,5.3,0.9,7.1,2.8c1.8,1.9,2.7,4.3,2.7,7.3s-1,5.5-2.9,7.5c-2,2-4.4,3-7.4,3
		c-3.7,0-6.5-1.4-8.4-4.1c-1.8-2.6-2.7-6.2-2.7-10.9c0-4.9,0.9-8.9,2.9-11.9c2-3.2,4.7-4.8,8.2-4.8
		C528,691.7,531.2,694.4,532.1,699.9z M517.2,707.9c-1.3,1.4-2,3.1-2,5.2s0.6,3.9,1.9,5.3c1.3,1.5,3,2.2,5.1,2.2s3.7-0.7,5-2.1
		c1.3-1.5,1.9-3.2,1.9-5.4s-0.6-3.9-1.9-5.2c-1.3-1.4-3-2-5-2C520.2,705.8,518.5,706.5,517.2,707.9z"/>
	<path d="M542.2,718.5c0.5,0.5,0.8,1.1,0.8,1.8c0,0.8-0.3,1.4-0.8,1.8c-0.5,0.5-1.2,0.7-1.8,0.7c-0.7,0-1.3-0.3-1.8-0.7
		c-0.5-0.5-0.8-1.1-0.8-1.8s0.3-1.3,0.8-1.8s1.1-0.7,1.8-0.7S541.7,718,542.2,718.5z"/>
	<path d="M558.6,692.3v30.5h-3.5v-26.3c-1.9,2-4.3,3.3-7.2,4.2v-3.5c1.4-0.4,2.8-1,4.3-1.8c1.5-0.9,2.7-2,3.7-3.1L558.6,692.3
		L558.6,692.3z"/>
	<path d="M583.5,694.2c1.6,1.5,2.5,3.4,2.5,5.6c0,1.6-0.4,3-1.2,4.1c-0.9,1.2-2.1,2.1-3.6,2.7v0.1c1.6,0.4,3,1.3,4.1,2.7
		c1.2,1.5,1.8,3.2,1.8,5.1c0,2.7-0.9,4.9-2.8,6.5c-2,1.7-4.7,2.5-8.2,2.5s-6.3-0.9-8.2-2.5s-2.8-3.8-2.8-6.5c0-2,0.6-3.7,1.8-5.1
		c1.1-1.4,2.4-2.3,4.1-2.7v-0.1c-1.6-0.6-2.8-1.5-3.6-2.7c-0.8-1.1-1.2-2.5-1.2-4.1c0-2.2,0.8-4.1,2.5-5.6c1.8-1.7,4.3-2.5,7.5-2.5
		C579.2,691.7,581.7,692.6,583.5,694.2z M570.3,710c-1.3,1.1-1.9,2.6-1.9,4.4c0,1.8,0.6,3.3,1.9,4.4c1.3,1.2,3.2,1.8,5.7,1.8
		s4.4-0.6,5.7-1.8c1.2-1.1,1.8-2.6,1.8-4.4c0-1.8-0.6-3.3-1.8-4.4c-1.4-1.2-3.3-1.8-5.7-1.8C573.5,708.2,571.6,708.8,570.3,710z
		 M570.9,696.3c-1.1,0.9-1.6,2.2-1.6,3.7s0.5,2.8,1.4,3.8c1.1,1.1,2.9,1.7,5.3,1.7c2.4,0,4.1-0.6,5.3-1.7c0.9-0.9,1.4-2.2,1.4-3.8
		c0-1.5-0.6-2.7-1.6-3.7c-1.2-1.1-3-1.7-5.1-1.7C573.8,694.6,572.1,695.2,570.9,696.3z"/>
</g>
<g>
	<path d="M816.9,637.9c-2.2,5.6-4.4,10-6.6,13.3c1.9-0.2,3.8-0.4,5.8-0.7c0.8-1.5,1.6-3.2,2.5-4.9l2.7,1c-3.8,7.2-6.9,12.4-9.4,15.4
		c3.1-0.6,6.2-1.4,9.2-2.4v2.8c-4.5,1.5-8.8,2.5-12.9,3l-0.9-2.8c0.6-0.3,1-0.6,1.4-0.9c1.6-1.6,3.5-4.4,5.7-8.4
		c-2.4,0.3-4.7,0.6-7.1,0.9l-0.7-2.8c0.5-0.2,0.9-0.6,1.3-1.1c2.3-3.9,4.3-8.5,6-13.6L816.9,637.9z M821.5,670.6
		c-4.2,1.6-9,2.9-14.4,3.9l-0.4-3c5.6-0.9,10.6-2.3,14.8-3.9L821.5,670.6L821.5,670.6z M842.7,647.3l-11,1.5c0.1,2.1,0.2,4,0.4,5.8
		l11.3-1.8l0.5,2.9l-11.5,1.8c0.1,0.8,0.2,1.5,0.3,2.2c0.4,2.2,0.9,4.1,1.5,5.9c2.3-2.1,4.4-4.5,6.2-7.3l2.4,1.7
		c-2.3,3.3-4.7,6.1-7.4,8.4c0.2,0.3,0.3,0.6,0.5,0.8c1.4,2.1,2.7,3.2,3.8,3.2s2.1-2.3,2.9-6.9l2.6,1.7c-1.2,5.6-2.9,8.5-5.1,8.5
		c-2.1-0.1-4-1.4-5.8-3.9c-0.4-0.5-0.7-1-1-1.6c-3.2,2.4-6.6,4.1-10.2,5.2l-1.8-2.5c3.9-1.3,7.5-3.1,10.6-5.4
		c-0.8-1.9-1.5-3.9-2-6.2c-0.3-1.1-0.4-2.2-0.6-3.3l-7.7,1.2l-0.4-2.9l7.7-1.2c-0.2-1.8-0.3-3.8-0.4-5.9l-6.2,0.9l-0.5-2.8l6.5-0.9
		V637h3.1v9.1l10.6-1.5L842.7,647.3z M841.5,642.1l-2.4,1.7c-1.2-1.7-2.9-3.5-5-5.5l2.4-1.5C838.6,638.9,840.3,640.6,841.5,642.1z"
		/>
	<path d="M887.6,639.2v3h-18.5v6.5c5.3,2.7,10.7,5.7,16.2,9.2l-1.8,2.7c-5.7-3.8-10.5-6.7-14.3-8.7v24.3h-3.1v-34h-16.3v-3H887.6z"
		/>
	<path d="M903.1,648.5v6.6h4.3v2.8h-4.3v6c1.6-0.3,3.2-0.7,4.6-1.1v2.9c-1.5,0.4-3,0.8-4.6,1.1v9.4h-3v-8.8
		c-2.5,0.5-5.1,0.9-7.8,1.2l-0.4-3c2.9-0.3,5.6-0.7,8.2-1.2V658h-7l-0.6-2.7c1.2-2.6,2.4-5.9,3.4-10h-3.8v-3h4.5
		c0.4-1.8,0.8-3.5,1.1-5.4l2.9,0.5c-0.3,1.7-0.7,3.3-1,4.9h7.7v3h-8.5c-1,3.8-2.1,7.1-3.2,9.9h4.6v-6.6h3L903.1,648.5L903.1,648.5z
		 M917.8,642.4v-5.3h2.9v5.3h5.7c-0.9-1.3-2.1-2.7-3.5-4.1l2.1-1.3c1.5,1.6,2.8,3.1,3.6,4.3l-1.6,1.1h3.9v2.9h-10.2v3.9h8.7v23.1
		c0,2.4-1.1,3.6-3.2,3.6h-3l-0.8-2.9l2.8,0.1c0.9,0,1.3-0.5,1.3-1.4v-5h-5.8v9.1h-2.9v-9.1h-5.6v9.4h-2.9v-26.9h8.5v-3.9h-9.1v-2.9
		L917.8,642.4L917.8,642.4z M912.1,652v4.8h5.6V652H912.1z M912.1,664.1h5.6v-4.7h-5.6V664.1z M926.6,652h-5.9v4.8h5.9V652z
		 M926.6,659.4h-5.9v4.7h5.9V659.4z"/>
	<path d="M960.9,660.6V658h3.1v2.7h9.4v3H964v9.1c0,2.4-1.3,3.6-3.9,3.6h-5.5l-0.7-3c1.8,0.1,3.5,0.2,5.1,0.2c1.2,0,1.9-0.5,1.9-1.5
		v-8.3h-26v-3h26L960.9,660.6L960.9,660.6z M966.9,648.8h-24.5v3.1c0,1.2,0.6,1.8,1.8,1.8h22.9c0.9,0,1.4-0.3,1.8-0.9
		c0.3-0.5,0.5-1.6,0.7-3.4l2.9,0.9c-0.2,1.9-0.5,3.3-0.9,4.1c-0.6,1.3-1.8,1.9-3.6,2h-24.9c-2.6,0-3.8-1.2-3.8-3.5v-14.4h27.6V648.8
		z M963.9,646v-4.6h-21.4v4.6H963.9z M951.9,671.6l-2.3,2.3c-1.7-2.2-4.1-4.5-7.1-6.9l2.2-2.1C947.6,667.1,950,669.4,951.9,671.6z"
		/>
	<path d="M877.4,700.2h-3.5c-0.7-3.5-2.8-5.2-6.3-5.2c-2.4,0-4.3,1.2-5.6,3.5c-1.4,2.2-2,5.1-2,8.6c0,0.2,0,0.6,0,1.1h0.2
		c0.8-1.6,1.8-2.8,3.3-3.7c1.4-0.9,3-1.3,4.7-1.3c2.9,0,5.3,0.9,7.1,2.8c1.8,1.9,2.7,4.3,2.7,7.3s-1,5.5-2.9,7.5c-2,2-4.4,3-7.4,3
		c-3.7,0-6.5-1.4-8.4-4.1c-1.8-2.6-2.7-6.2-2.7-10.9c0-4.9,0.9-8.9,2.9-11.9c2-3.2,4.7-4.8,8.2-4.8
		C873.3,692.1,876.6,694.8,877.4,700.2z M862.5,708.2c-1.3,1.4-2,3.1-2,5.2s0.6,3.9,1.9,5.3c1.3,1.5,3,2.2,5.1,2.2s3.7-0.7,5-2.1
		c1.3-1.5,1.9-3.2,1.9-5.4s-0.6-3.9-1.9-5.2c-1.3-1.4-3-2-5-2C865.5,706.1,863.9,706.8,862.5,708.2z"/>
	<path d="M887.6,718.8c0.5,0.5,0.8,1.1,0.8,1.8c0,0.8-0.3,1.4-0.8,1.8c-0.5,0.5-1.2,0.7-1.8,0.7c-0.7,0-1.3-0.3-1.8-0.7
		c-0.5-0.5-0.8-1.1-0.8-1.8s0.3-1.3,0.8-1.8s1.1-0.7,1.8-0.7S887,718.3,887.6,718.8z"/>
	<path d="M903.9,692.7v30.5h-3.5v-26.3c-1.9,2-4.3,3.3-7.2,4.2v-3.5c1.4-0.4,2.8-1,4.3-1.8c1.5-0.9,2.7-2,3.7-3.1L903.9,692.7
		L903.9,692.7z"/>
	<g>
		<path d="M929.1,696.1c1.8,2.6,2.7,6.2,2.7,10.9c0,4.9-1,8.8-2.9,11.9c-2.1,3.2-4.8,4.8-8.2,4.8c-5.7,0-8.9-2.7-9.7-8.2h3.5
			c0.6,3.5,2.7,5.2,6.3,5.2c2.4,0,4.2-1.2,5.6-3.5c1.3-2.3,2-5.1,2-8.6c0-0.2,0-0.6,0-1.1h-0.2c-0.8,1.5-1.9,2.8-3.3,3.7
			c-1.4,0.9-3,1.3-4.7,1.3c-3,0-5.3-1-7.1-2.9c-1.8-1.8-2.6-4.2-2.6-7.2s0.9-5.5,2.9-7.5c1.9-2,4.4-3,7.4-3
			C924.4,692,927.2,693.3,929.1,696.1z M915.8,697c-1.3,1.4-1.9,3.2-1.9,5.4c0,2.1,0.6,3.9,1.9,5.2c1.2,1.3,2.9,2,5,2
			c2,0,3.6-0.7,5-2.1c1.3-1.4,2-3.1,2-5.2c0-2.1-0.6-3.9-1.9-5.3c-1.3-1.5-3-2.2-5.1-2.2C918.7,694.9,917.1,695.6,915.8,697z"/>
	</g>
</g>
<g>
	<path d="M1500.8,674.7c0.7-0.4,1-1,1-1.8v-33.1h3.1v11.9h11v3h-11v19.2c3.8-0.9,7.5-1.9,11.2-3.2l0.8,2.9c-4.7,1.5-9.8,2.8-15.2,4
		L1500.8,674.7z M1522.2,672.1c0,1.2,0.6,1.9,1.9,1.9h6.4c0.8,0,1.5-0.3,2-0.8c0.7-0.7,1.2-3.2,1.3-7.6l3,0.9c-0.4,5-1,8-1.9,9
		c-0.9,0.9-2.1,1.3-3.6,1.4h-8.1c-2.7,0-4.1-1.5-4.1-4.3v-33.2h3.1V653c4.2-1.2,8.3-2.9,12.2-5l1.8,2.5c-4.9,2.4-9.6,4.2-14.1,5.4
		V672.1z"/>
	<path d="M1579.7,663.1l-1.2,2.6c-2.3-0.7-4.4-1.5-6.1-2.4v8.2h-3V664h-17.1v7.5h-3V663c-1.9,1-4,1.9-6.3,2.7l-1.6-2.6
		c4.6-1.2,8.1-2.8,10.4-4.6h-9.3v-2.5h11.6v-2.6h-5.5v-2.3h5.5v-2.6h-6.3v-2.4h6.3V644h-7.9v4.3h-3v-6.9h15.9
		c-0.5-0.9-1.1-1.7-1.6-2.4l3.2-0.6c0.5,0.9,1.1,1.8,1.6,2.9h15.6v6.9h-3V644h-8v2.4h6.4v2.4h-6.4v2.6h5.6v2.3h-5.6v2.6h11.8v2.5
		h-9.5C1571.6,660.5,1575.1,662,1579.7,663.1z M1561.8,665.6c-0.5,4.5-1.6,7.6-3.3,9.1c-1.9,1.9-6.2,3.2-12.8,3.7l-1.2-2.6
		c5.8-0.3,9.6-1.2,11.5-2.8c1.7-1.5,2.7-4,3-7.6L1561.8,665.6z M1566.1,658.6H1555c-0.9,1-2,2-3.2,2.9h17.6
		C1568,660.6,1566.9,659.6,1566.1,658.6z M1557.2,644v2.4h6.8V644H1557.2z M1564,648.8h-6.8v2.6h6.8V648.8z M1564,656.2v-2.6h-6.8
		v2.6H1564z M1576.3,676l-1.5,2.4c-4.2-2.2-8.5-4-12.9-5.3l1.5-2.2C1568.1,672.4,1572.4,674.1,1576.3,676z"/>
	<path d="M1585.6,665l-1.8-2.1c2.6-2.5,4.8-5.8,6.5-9.8l2.5,0.6c-0.4,1.1-0.9,2.2-1.5,3.2h5.7c-0.4-1.1-0.9-2.1-1.4-3l3-0.5
		c0.4,1,0.9,2.2,1.3,3.5h7v2.5h-7.2v3h6.2v2.2h-6.2v2.9h6.2v2.2h-6.2v3.1h6.8v1.8c1.9-1.5,3.6-3.2,5.1-5.5c-0.7-2-1.3-4.3-1.8-6.8
		c-0.6-2.9-1-6.3-1.3-10.2h-24.2v-2.8h10.8v-4h-8.6v-2.7h8.6v-3.4h3v3.4h7.7v2.7h-7.7v4h10.2c-0.2-3.2-0.2-6.5-0.2-10.2h3
		c0,3.8,0.1,7.2,0.3,10.2h11v2.8h-10.9c0.2,3.8,0.6,7,1,9.4c0.3,1.6,0.6,3,1,4.3c1.6-3.3,2.9-7.1,3.8-11.6l2.7,1.2
		c-1.3,5.8-3,10.5-5.3,14.3c0.3,0.7,0.6,1.3,0.8,1.9c1.1,2.1,1.9,3.2,2.6,3.2c0.7,0,1.3-2.2,1.8-6.5l2.6,1.4c-0.9,5.6-2.3,8.4-4,8.4
		c-1.5,0-3-1.3-4.6-3.9c-0.4-0.6-0.7-1.2-1-1.8c-1.8,2.4-3.8,4.2-6,5.5l-1.6-2.4l0.3-0.2h-14.7v2.1h-2.7V662
		C1587.3,663,1586.5,664,1585.6,665z M1597,659.3h-6.1v3h6.1V659.3z M1597,664.5h-6.1v2.9h6.1V664.5z M1597,672.7v-3.1h-6.1v3.1
		H1597z M1619.9,645.9l-2.3,1.6c-1.1-1.9-2.7-4-4.6-6.3l2.3-1.4C1617.3,642.1,1618.8,644.1,1619.9,645.9z"/>
	<path d="M1649.6,639.2v13.9h13.2v3h-13.2v17.3h15.5v3h-38v-3h7.3v-26.7h3.1v26.7h8.9v-34.2H1649.6z"/>
	<path d="M1560.5,694.7v2.9l-11.2,27.7h-3.7l11.4-27.3h-16.5v-3.2H1560.5z"/>
	<path d="M1569.9,720.8c0.5,0.5,0.8,1.1,0.8,1.8c0,0.8-0.3,1.4-0.8,1.8c-0.5,0.5-1.2,0.7-1.8,0.7c-0.7,0-1.3-0.3-1.8-0.7
		c-0.5-0.5-0.8-1.1-0.8-1.8s0.3-1.3,0.8-1.8c0.5-0.5,1.1-0.7,1.8-0.7S1569.3,720.3,1569.9,720.8z"/>
	<path d="M1594.7,698.9c1.6,2.7,2.4,6.4,2.4,11s-0.8,8.3-2.4,11c-1.9,3.2-4.6,4.8-8.3,4.8c-3.7,0-6.4-1.6-8.3-4.8
		c-1.6-2.7-2.4-6.4-2.4-11s0.8-8.3,2.4-11c1.8-3.2,4.6-4.8,8.3-4.8C1590.1,694.1,1592.9,695.7,1594.7,698.9z M1580.6,701.5
		c-0.9,2.1-1.3,4.9-1.3,8.5c0,3.5,0.4,6.4,1.3,8.5c1.2,2.9,3.2,4.4,5.9,4.4s4.7-1.5,5.9-4.4c0.9-2.1,1.3-4.9,1.3-8.5
		c0-3.6-0.5-6.4-1.3-8.5c-1.2-2.9-3.2-4.4-5.9-4.4S1581.8,698.5,1580.6,701.5z"/>
	<path d="M1619.5,696.5c1.8,1.6,2.7,3.8,2.7,6.5c0,2.7-1,5-3,7.2c-1.1,1.1-3.2,2.8-6.3,4.9c-3.9,2.6-6.1,5-6.7,7h16v3.1H1602
		c0-2.8,1-5.3,3-7.6c1.2-1.4,3.4-3.2,6.6-5.4c2.4-1.7,4-3,4.8-3.8c1.5-1.7,2.4-3.5,2.4-5.5c0-1.9-0.6-3.3-1.7-4.3s-2.7-1.5-4.7-1.5
		c-2.1,0-3.7,0.7-4.8,2.1c-1.2,1.4-1.8,3.4-1.9,6.1h-3.5c0-3.4,1-6.2,2.9-8.2c1.9-2.1,4.4-3.1,7.5-3.1
		C1615.4,694.1,1617.7,694.9,1619.5,696.5z"/>
</g>
</svg>
